<mxfile host="app.diagrams.net" agent="Mozilla/5.0 (X11; Ubuntu; Linux x86_64; rv:142.0) Gecko/20100101 Firefox/142.0" version="28.1.2">
  <diagram name="Page-1" id="5G3HaDHeJ8rmME-3uMyv">
    <mxGraphModel dx="1360" dy="795" grid="1" gridSize="10" guides="1" tooltips="1" connect="1" arrows="1" fold="1" page="1" pageScale="1" pageWidth="850" pageHeight="1100" math="0" shadow="0">
      <root>
        <mxCell id="0" />
        <mxCell id="1" parent="0" />
        <mxCell id="3KESqyqhZTct8W2ELvNK-3" value="" style="edgeStyle=orthogonalEdgeStyle;rounded=0;orthogonalLoop=1;jettySize=auto;html=1;" edge="1" parent="1" source="3KESqyqhZTct8W2ELvNK-1" target="3KESqyqhZTct8W2ELvNK-2">
          <mxGeometry relative="1" as="geometry" />
        </mxCell>
        <mxCell id="3KESqyqhZTct8W2ELvNK-1" value="" style="shape=image;verticalLabelPosition=bottom;labelBackgroundColor=default;verticalAlign=top;aspect=fixed;imageAspect=0;image=data:image/png,iVBORw0KGgoAAAANSUhEUgAAA1wAAAJwCAYAAACd/GA9AAB3E0lEQVR42uy9h1dVZ96w/f4j7zOTySR5kinJpFcr9t5iRbEXsIANBERp0kTpKthFQRAL2BBUVJQoghok6oMxlqhDykp5H1fmm1nr9+17E/CoZ5+zD5wDp1ysda3JmpK5wo37/l3sfe79f8TJXz/++KNTwQ8//PDDDz/88MMPP/zw81S//8OC4Icffvjhhx9++OGHH374EVz44Ycffvjhhx9++OGHH34EFwuCH3744Ycffvjhhx9++OFHcOGHH3744Ycffvjhhx9++BFc+OGHH3744Ycffvjhhx9+BBcLgh9++OGHH3744YcffvjhR3Dhhx9++OGHH3744YcffvgRXPjhhx9++OGHH3744YcffgQXC4Iffvjhhx9++OGHH3744Udw4Ycffvjhhx9++OGHH374EVz44Ycffvjhhx9++OGHH34EFwuCH3744Ycffvjhhx9++OFHcOGHH3744Ycffvjhhx9++BFc/MDghx9++OGHH3744YcffgQXC4Iffvjhhx9++OGHH3744Udw4Ycffvjhhx9++OGHH374EVz8wOCHH3744Ycffvjhhx9+BBcLgh9++OGHH3744YcffvjhR3Dhhx9++OGHH3744Ycffvh1WnDxDcQPP/zwww8//PDDDz/88HONH8GFH3744Ycffvjhhx9++OFHcOGHH3744Ycffvjhhx9++BFcLAh++OGHH3744Ycffvjhhx/BhR9++OGHH3744YcffvjhR3Dhhx9++OGHH3744YcffvgRXCwIfvjhhx9++OGHH3744YcfwYUffvjhhx9++OGHH3744Udw4Ycffvjhhx9++OGHH374EVwsCH744Ycffvjhhx9++OGHH8GFH3744Ycffvjhhx9++OFHcOGHH3744Ycffvjhhx9++BFcLAh++OGHH3744Ycffvjhhx/BhR9++OGHH3744YcffvjhR3DxA4Mffvjhhx9++OGHH374EVwsCH744Ycffvjhhx9++OGHH8GFH3744Ycffvjhhx9++OFHcPEDgx9++OGHH3744YcffvgRXCwIfvjhhx9++OGHH3744YcfwYUffvjhhx9++OGHH3744dd5wcU3ED/88MPP3Ndv//6P3P/xV6s0Nf8kp6/f6RDVX30jjXcftmH592/+5Qnrix9++OGHH34e6Edw4Ycffj7n1/TgcVvQ1Nx+1EbplTtSXNvURtqJK25Nfs3NZ3wt/1mshRo/f/jhhx9++OFHcPEDgx9++LXb7/F33+shdeXrB213jQpqbujkVTW4fUC5mh3Vjfr3ovzabf17o75P6vvFzx9++OGHH374EVz44Ycffs/cnVLBoMJBBYQKCV+PqY6igrQ1xlofbeTnDz/88MMPP/wILvzww89L/dTjcI3f/qA/Hqcel1OPzxFGXRNiJZdu6YGrIkzdReTPB3744YcffvgRXPjhh5+H+P385F/6gROtYbXlLHerPCHCyuqapP5us1MO8+DPB3744YcffgQXC4Iffvg5wU/FlbprVXXzgUccSgHmyDn1pX7gSEcDjD+/+OGHH374EVwsCH744WcS9ehZ6ymAKq7UUO4pAbHx5LVnWHf4kqwru/gMkbtPScjm46YIzC6VORkH21iUe9T0/zb5YM0L/985lVef8XPXAFNxrSKbPx/44YcffvgRXCwIfvjh10G/e4+a5dKte/qhC+52iEVWpRYBFdq/nqiXtYdqdGKKzrZFjQogyyDyZCxjrjXWMo5d1sMsqwuPr1d3Ne3d/eLPL3744YcffgQXC4Iffvg9F1jqszxdfeS6CgkVVGtLv9Bjaum2E1bvLEEL6vuivj8R+Sf171fm8cudFmPqM3rlDff0z+3x5xc//PDDDz+CiwXBDz/8LFDvbeqqO1jZJ6+23aFqvTs1f8NhAsoFd8hUsKrvs/p+q7uDrnz0UMVX650v/vzihx9++OFHcLEg+OHnU37qLpZ6J5M6Frwzw0p9Rkk9CqcGf2963M/T74gl7j+vR1iGq+58aTGvfub484sffvjhhx/BxYLgh5/X+ql3LanBtzMeE8ypvKZ/vii2+Jw+0BM3nnUnTB0cotZPRbIzfy7UC5jV46qW7/zizy9++OGHH34EFwuCH34e66c+T6Me7cp24Yl3aignrrwX9XinCrDsE/WSWXHVST8z1/TPCLb3rhfXF/zwww8//AguFgQ//LrMrzWyXHVcu3r0rPWxQA6v8M07YOqUxKwK5931Up8h5M8vfvjhhx9+BBcLgh9+buvnyshSgaU+48PdK7B196ujP2fqUVezjxtyfcEPP/zww4/gYkHww8/lfuoEOFdEViaBBe08gMMZ8aUeNzx9/Y7N8OL6gh9++OGHH8HFguCHn0v8fn7yL6m/26yf/ObMlwenHbnEI4Lg9PjqyGOHtsKL6wt++OGHH34EFwuCH35O9VOPDJZeueP0u1gczQ6d8dhhkvrMV6XzwovrC3744YcffgQXC4Iffh32U3ezam4/ctrdrMzjlyUi/yQvFYYuQ91FVT+HHQ0vri/44Ycffvi5RXDxDcQPP8/0u//jr057IXFrZPGoILjbXa/kQ1+065h59QsIdbgG1xf88MMPP/y62o/gwg8/D/L77d//kcZvf3DK3SwiCzzps17q/W1Z7QivHdWN+su8ub7ghx9++OFHcLEg+OFn+NX62GBHTxpUn8mKKTpLZIHH0nLIhuPhpe4Gt/cFylz/8MMPP/zwI7jww89L/VRoqSPdO3q6oDqMgM9kgTehXkeQ1Y7Pd1V/9Q3XF/zwww8//AgufmDw83U/9fmsDp82+PsR7gznQHi9+Jhh04PHXP/www8//PAjuPiBwc/X/FRoFdc2deCRwSs8Mgg8amiS8mu3bb44mesffvjhhx9+BBd++HmJn3p/VodC6/hl7mYB/B5eGQ6EV15Vg+lDNbj+4YcffvjhR3Dhh58H+akTBzvy/ix1VDafzQKwfqph/L7zDv15Uu/u4vqHH3744YcfwYUffl7gpx4b7MhBGOqxKXVENo8NAth/j1eaAy9QtvfZLq5/+OGHH374EVz44efGfuolrB15bDCr4or+uBSDNIBjhO2s1D/faPYkQ6MXJnP9ww8//PDDj+DCDz839FPDm/qcSLtDS0OdxMbgDNCxxwzVI7hm/9yV1TW9cKAG1z/88MMPP/wILvzwcxM/NagRWgDux6Lco/oLwNvziCHXP/zwww8//Agu/PDrYj8VWurD9+qxpPaGVrY2DBJaAK4lrrja9COGV75+wPUPP/zwww8/ggs//LraryN3tLJPXtVPVePEQYDOfWlypgOnGHL9ww8//PDDj+DCD78u8OtIaKnHBnl/FkDXfrYrpfQLcy9Kbrinv86B6x9++OGHH34EF374dYKfelmq+oxHe0Jr3ZFL+mdJGHgB3IOI/JOSUWH/z25+zU2nRRfXZ/zwww8/gosFwQ8/K/8f6kP0BTU3HI6sDI3kQ1/w2CCAhx+ooV5W3vzLE67P+OGHH374EVz44edMP3Ughjoquj2hpT6gz4uKAbznEcOcU192OLq4PuOHH374EVwsCH74/f73rf7qG4dPHiS0ADyXlXtOm4qupuafuD7jhx9++OFHcOGHX3u/2vM5LfU5EEILwPMJ21mp/+LE3p/5xm9/4PqMH3744YefcXDxDcQPP+vv02rP44PqMAw+owXgXZ/ryqq4avfPvjqtlOszfvjhhx9+1r4ILvzwe472PD64/mgtoQXgxZ/rMvO+Lkeji+szfvjhhx/BxYLg51N+9x41O3z6YNaJegnJOyaz0w8AgBczL+uQpB655NTo4vqMH3744UdwsSD4+Yzf6et3HPyc1lWJyD/FIArgYySbOMHQbHRxfcYPP/zwI7hYEPy83k+9U8vRQzHi9lXrv+1m+AQgujoSXVyf8cMPP/wILhYEP6/2c/SuVvrxOgnKKWPgBABJOlhj95px5esHXJ/xww8//PAjuPDzPT/1WS1H7mqpxwdX7KxkyASAZwjfddLmtUMdvqPuonN9xg8//PAjuFgQ/HzGz9ETCJMPfcHjgwDgkuji+owffvjhR3CxIPh5jZ96r1bJpVumQ0sdAc3pgwBgBvW5TlvXk7yqBv0axPUZP/zww4/gYkHw80q/xrsPHbqrFVt0TuZlHpLZaQcAAEyh7obbuq6ox5ifjy6uz/jhhx9+BBcLgp/H+zlyMEbmiXpZuPEIwyMAuCS6yuqauD7jhx9++BFcLAh+3uGnfpPsyEuM1Ylj3NUCAFdHl/olEPsHfvjhhx/BxYLg59F+jjxC2PJZraPaoLQfAKDDzMs8KBnl9aaOi2f/wA8//PAjuFgQ/DzOz5FHCFMPX9KHI4ZEAHB2dKlHlO2dXMj+gR9++OFHcLEg+HmM32///o+UXrlj8r1aVyR8Z6XM0gYjAABXsGDjYcmwc4iGum6xf+CHH374EVwsCH5u79f8yxPJr7lpLrbK6yUwu5SBEABcTnDeUZvXo/KGe+wf+OGHH34EFwuCn3v7NTX/JDmnvjQVW4kHLzAEAkCnou6m27ouNX77A/sHfvjhhx/BxYLg555+9Xebzd3V0gjdXiGz1u8HAOh0kg/VGF6f1C+M1F169g/88MMPP4KLBcHPrfzUozhm3621YMNhhj4A6FJsnVyoHolm/8APP/zwI7hYEPzcwk99yLy4tslUbKnfKs/NOMiwBwBdTmBWqc1DNKpuPmD/wA8//PDz1uDiG4ifp/jde9Ssn+xlJrZW7jnNkAcAbkXYDjuf57r7kP0DP/zww88L/Qgu/DzCT72zxszLjDMrrkpw7lGGOwBwS5IOGn+eK6+qQR5/9z37B3744YcfwcWC4Ne5fuq3vqZiS/+8Vpk21JQAALgtWRU2joq/dpv9Az/88MOP4GJB8Os8v0u3zB2OkXbssszNOMAwBwBuj/rFUGblVac/Wsj+gR9++OFHcLEg+DnkZza21OEYDHEA4Ems3HPK6Y8Wsn/ghx9++BFcLAh+pv3MxlbM3rMyc10JAIDHoe7MG13bTl+/w/6BH3744UdwsSD4ucavrM7cse8rdlQwtAGAxxKYdUgybHyeSx0WxP6BH3744UdwsSD4OdXPTGypd9ks2nSUgQ0APJ6I/JOG17qCmhvsH/jhhx9+BBcLgp/z/MzG1vycMgY1APAa1AmrRtc89Xg1+wd++OGHH8HFguDXYT9iCwB8FXVdM7ruqVdimD1Ag/0NP/zww4/gYkHws+pnKrbK6/XPOzCcAYA3knjgQocP0GB/ww8//PAjuFgQ/F74Mhtbc9IPMJQBgNeirnHpNq6D9x41s3/ghx9++BFcLAh+jn2VN9wzGVv7tYFkHwCAV6NOXjW6FqpfTrF/4IcffvgRXCwIfqa/Gr/9wVxspWmxlboPAMAnSLfxbi57x8Szv+GHH374EVwsCH7EFgCADRZtPNLuY+LZ3/DDDz/8CC4WBD/TsTVbi60Z2vABAOBrpByqMbw+Nt59yP6GH3744UdwsSD4Wf+6/+OvxBYAgB3mZR5s110u9jf88MMPP4KLBfFhv+ZfnkjOqS+JLQAAF93lYn/DDz/88CO4WBAf9fv5yb/sx5aG+q0ugxYAwD79l08ZDt7lYn/DDz/88CO4WBAf9Pvt3/+R/JqbdmMrKLuMIQsAwIKYvWcdusvF/oYffvjh56bBxTcQP1f6qd/E2oqtzIqrxBYAgMFdLnWNtHbtLK5tYn/DDz/88PMQP4ILP5f5qRd12jskI3TbCZmxdh8AAFghtuic4fVTfTaW/Q0//PDDj+BiQXzU79Kte3Zja8V2FVvFAABgwOz1JYZ3ucob7rG/4YcffvgRXCyIL/qpzxbYi62YvWcYpgAATJBadtHwWqoOJWJ/ww8//PAjuFgQH/K796hZsk9esxlbSQcvMEQBAJhkXobxe7mqbj5gf8MPP/zwI7hYEF/xe/zd97KjutH2iYTH6xmgAAAcJP1ordVrqnrlhjoNlv0NP/zww4/gYkF8wM/eIRmZGrPWl8h0bXgAAADzLNx42PiI+G9/YH/DDz/88CO4WBBv97N3SEZGhXrXVimDEwBAO8ksr7d6fd1ytpH9DT/88MOP4GJBvNmv6cFju4dkhG0/wcAEANABVuyoMLzG3v/xV/Y3/PDDDz+CiwXxRj/1ua28qgabsZWw/7xMTykGAIAOkl1pfEQ8+xt++OGHH8HFgnihX8mlW7bvbh2tZUgCAHASsXvPGl5v1S/A2N/www8//AguFsSL/Kq/+sZmbKWrQzLWlTAkAQA4ibnpxkfEq2sy+xt++OGHH8HFgniJn/rclr33bQVlHdIGhCIAAHAiWeV1Vq+56rUc7G/44YcffgQXC+IlfvbetxW+s5LBCADABQTnHjW89qpfhrG/4YcffvgRXCyIh/udvn7HZmylll1kKAIAcCGZFQaHZ1y7zf6GH3744UdwsSCe7Nd496GJz23tYyACAHAhiQcuWL0Gq1Nj2d/www8//AguFsRD/X7793/sHgG/IKdMpiUXAQCACwnMPGR4Hb7y9QP2N/zwww8/gosF8US/qpsPbL9vq+Q8gxAAQCdh9E6usrom9jf88MMPP4KLBfE0v/s//moztjJP1DMAAQB0Ion7rT9WqE6QZX/DDz/88CO4WBAP89ty1vaphOrxFgYgAIDOY07aAZc+Vsj+ix9++OHnpODiG4ifPeydShiz9yzDDwBAF5BpcF0ub7jH/oYffvjh5yZ+BBd+NlHvdLEVW1kVVxh6AAC6CPXZWWvXZvVUAvsbfvjhhx/BxYJ4gF9BzQ07jxIe1Db9vQAA0AWoa7DR9bn5lyfsb/jhhx9+BBcL4s5+l27ds/Mo4RkGHgCALkY9aWDtGq1OlmV/ww8//PAjuFgQN/V7/N33+klXth4lnJlazLADANDFJB+w/lhhfs1N9jf88MMPP4KLBXFXv/Jrt22/4Di7TKYl7QUAgC4meOMRw2v1z0/+xf6GH3744UdwsSDu5nfvUbPN2Fp3+CJDDgCAG2F0vW789gf2N/zwww8/gosFcTc/WwdlZFZclZlrixlwAADciIyjtVav2aVX7rC/4YcffvgRXCyIO/k13n1o+6CMwjMyVdvcAQDAfVi1+5TVa3bOqS/Z3/DDDz/8CC4WxJ388qoajO9unahnsAEAcEPmZTj/eHj2X/zwww8/ggs/J/vZOwZ+fnYZgw0AgJuSXXnV6rW75vYj9l/88MMPP4KLBelqP3vHwK8/Wqtt6IUAAOCmpB2x/jmu4tom9l/88MMPP4KLBelqv9PX79i8uzV7XYlMTSwEAAA3JWzbCcNrOPsvfvjhhx/BxYJ0oZ+9u1vJBy8wzAAAuDnqF2NG1/H7P/7K/osffvjhR3CxIF3lZ+vuVkYFd7cAADwF9eoOa9fy+rvN7L/44YcffgQXC9IVfvbubkUXVDHEAAB4SnAdv+y093Gx/+KHH374EVz4OcHP5t0tjRkpRQwxAAAeQsK+aqe9j4v9Fz/88MOP4MKvg37c3QIA8C7mZ5caXtN/fvIv9l/88MMPP4KLBelMP+5uAQB4H0bX9abmn9h/8cMPP/wILhaks/zs3d1aXVAlAdrGDQAAnoWzXoDM/osffvjh56Tg4hvom37qxCqj2FKnXE1PKWJwAQDwQNaVXrR6bS+oucH+ix9++OHXBX4El4/6bTnbaOOzW2ckIKEQAAA8kKj8U1av7eqpBvZf/PDDDz+Cix+YTvBr/PYH23e3kou0TbsAAAA8kKCsQ4bX+HuPmtl/8cMPP/wILn5gXO2XX3PTcDNOKKlmYAEA8GDUL82MrvFXvn7A/osffvjhR3DxA+NKv/s//mq4EStmpe5jYAEA8HCyKqxf49XptOy/+OGHH34EFz8wLvQrb7hnGFtrS79gUAEA8AIyjtdZvc6XXLrF/osffvjhR3DxA+MqP/XSS1t3t+amH2BQAQDwApJKqq1e53dUN7L/4ocffvgRXPzAuMpPvYPF8LCM43UMKQAAXoLRSYUK9l/88MMPP4KLHxgX+dk6Cj506wkJWFMAAABeQFBmx08qZP/FDz/88CO48HPAr6n5J8PNN7vyqkzRNmgAAPAOZqbuM7zmN959yP6LH3744Udw8QPjbL/SK3dsvOi4igEFAMDLMLrmmz2pkP0XP/zww4/gws+kn73DMtRvQhlOAAC8i8wT9QQXfvjhhx/BxYJ0hl/93WYbh2Vc1jbmPQAA4GVkn7B+NHxBzQ32X/zwww8/gosfGGf62TosY2FOGYMJAIAXkrz/fIeOhmf/xQ8//PAjuPAzQfMvT4zvblVcZSgBAPBSkkrOdehoePZf/PDDDz+CCz8TVN18YLjhJpRUM5QAAHgpy7ccJ7jwww8//AguFsTVfrYeJ5yzfr9Mid8DAABeSFDGwQ4dDc/+ix9++OFHcOFnB7WhGm22WRoMJAAABBf7L3744YcfwYVfOymrazLcbFfln2IgAQDwcoz2gEu37rH/4ocffvgRXPzAdJTsk9eM3721tphhBADAR4PLzLu42H/xww8//JwUXHwDvdPP1umEGeV1MlnbiAEAwLsx2gdqbj9i/8UPP/zw6yQ/gstL/WydTrhy10ltI94NAABeTnblVav7QHnDPfZf/PDDDz+Cix+YjnzZOp1wxtoiBhEAAB9gQ6X1faC4ton9Fz/88MOP4OIHxnWPEzKEAAAQXOy/+OGHH34EFz8w7fqqv9tsGFyxhVUyOW43AAD4ABsqCC788MMPP4KLBXG6n9pIDV92vK6EIQQAwEfIOVFndS/IOfUl+y9+PuP3+Lvv5f6Pv+qHxTxPU/NP8vOTf/H9w4/gws/812///o/xy44rrjCAAAD4EMn7zxvuCey/+Hmzn4qs6q++kR3Vxp9ptyS/5qb+hJCao/j+4Udw4WfzS/2mxuhiklr6BQMIAADBRXDh57V+KrTUe+ZsvYvUHuoUT3vhxfriR3D5sJ+6SBhdQBZklzKAAAAQXAQXfl7p13j3oeRVNbQ7tJ5/7Fbd8WJ98SO48Hvhy9Zx8FMTChlAAAAILoILP6/zU3e1nBFa1g6YsXa3i/XFj+DyUT/1oU/D4+CPXxZ/bfMFAADfgeDCzxf8yuqaXBJbrahfZqtX7rC++BFc+Enjtz/YPA7ePy4fAAB8CFvBpU5tY//Fz9P9XB1brWw71yg3H/7A+uJHcPm6n63Pb81LPyD+sfkAAOBDJJect3kqG/svfp7sZza2Uo/VSfjOk7Ig85BMid0jE6N2iP/qXTI7pVhCt5ZLUulFm//7jae/lDUHLsjqPafkfvNPrC9+BJcv+9n6/BaDBwCA76F+2WZrkFRPRrD/4ueJfmZiS4VW2LYKmbamUCZH58ukVbv02JqwcruMj9gmY8O3yOdhm2VMaJ4Epu2XtUcvv/j3Ka+ThIM1smLHCQlM3y+zE/fI/3vyG+uLH8Hli342P7917DKDBwCAj7L+aK3Nk9iMjr9m/8XPXf3MxFbCwS9kVso+mRKzW48tfxuxNXp5roxaulH/68j8k21/j5QjtZJ46AsttiokKGO/TI7ZKcOXZEtkZgnrix/B5Yt+Nj+/VVDF0AEA4KPMSN5rczAtvXKH/Rc/j/EzG1vTE4q02NpjEVs722JrXPjWF2JrxJINMnxxjgwLzpLAtBJJPnxJEku/kPCdlTI/84BMid2p/XdypNfMJHl3TKRUnKtjffEjuHzNr+rmAz6/BQAAVkk5VGNzQG36/XMp7L/4ubOf02JrhUVsLdsoIy1ia+iiTBmyMEP732yVsO3lsiDzoATE7ZIRS3Ok96xkee/zlfJq32AZMSeJ9cWP4PI1P/XhZz6/BQAA1ghYUyCZFVcderSQ/Rc/d/JrV2yttoitSPOxNWh+mgwMWi9jw/O02MqXkcs2iN/sFHlvbJS81i9E/u+nc3XO115nffEjuHzJz+jik1lez7ABAAAStu2E3Re8sv/i545+l27da1dsTdJja0dbbI1dscUitjY9ja2Q7LbYGjw/XY+tAYHrpP/cVO0/y9Jj6/1xUfLf/Re3xZYiNGkn64sfweUrfupdKkYXoKSSagYNAACwe4CGQj2ezv6Lnzv5OR5bu41jK8yx2Oo3J0X6zE6WD8avktcHPBtbCj//aNYXP3PBxTfQ8/2qv/rG8CK0bMtxhgwAAGg7QCOjwvbwqgZc9l/83MHP1oFglrE1Q8VWrEVsrbIfWyNMxpbfzCR5c1joC7HVCuuLn5kvgssL/Gw91zw7dZ/4x+QDAADoLM07ZneIbXrwmP0Xvy7160hsTXQ0thaky6CgNIvYWtsWW71nJNoMroZb91lf/AguX/DbUW38wuNJMbsAAACeIaGk2uYgm33ymjT/8oT9F78u8TP7GKGZ2FLHv7fFljr+vS22sgxjq69FbPWavkbeHLrcMLjO191kffEjuHzBz3DDLK9jsAAAgBeYsmaPpB+rsznQqpMLnRldzAf4OTu2AoxiK8I4toYbxdY8i9ia9TS2ek6Nl78TXPgRXL7tpx77MLogJe6rZrAAAACrTE/aKxl2BltnRhfzAX7OiK3UY3VPYyumHbEVbBFb8+3HVo+AOHmtX7BhcP38K38+8CO4vN7vytfGLzyO3FnJUAEAAIbMSi22O+A6K7qYD/BzRmzNW3fAIrby22JrQuT2Z2JrTKj92BoYuN4itlIsYitBek5ria1P/aMNY+uNfiGsL34Ely/4nb5+x/DCNDdtPwMFAADYZGneUVPRpQ4xYP/FzxV+jsbWFMvYinJObPWxElvdpsTKXwYuMQyu6aE5rC9+BJcv+JVcusWBGQAA4PLoUtTfbWb/xc+pfqZja337Y2uYUWzNNY6t7lpsfTA20jC2FHuPXGB98SO4fMHP6ITCrIp6mRS9CwAAwBRLc81FV3nDPfnt3/9hPsCvw36OxVaBRWztaout8RHbLGIr72lsqRcbt8bWokyHY+ujCavkD93mdcrjhPz8EVwsiJv72TyhkAECAABcEF35NTfl5yf/Yj7Ar91+Tout8KexNbodseU308qdrXEr5eVe823e3corrGR98SO4fMHv3qNm2ycUMjwAAICLokt9rqup+SfmA/wc9rN1wrJRbE2Odjy2hlrGVpD52LJ1Z0vh5x/N+uJHcPmKX+PdhzZOKKzQNs6dAAAADqOiK7PiqqnwKr1yx9QjhswH+LXGlnqxtlNja3nu09hSLzZui62MttgaMG+dRWwlW8TWmrbY+tBEbL3eN1jO115nffEjuHzFr/qrb4xPKFxfwtAAAADtZtbaIsk4cdVpd7uYD/DrcGyttB5bozoSW1PNx5Zia1EF64sfweVLfraOhJ+WWCgTtQ0TAACgvUyO3y3px+tNRVfr3S6jz3YxH/i2X3tjy99ZsTXnaWz17mBssb74EVw+5FdQc8PwosWgAAAAzoquhJJq09Gl7nbV3H7EfIBf+2IrTsXWHovY2tkWW+PCt9qNLXX8u2Vs9Z+bahFbSRaxFd/u2GJ98SO4CC79SHiGBAAAcCZL845JZuVV0+G15WzjM48ZMh/4pp/Z2Ao0E1srLGJrWTtia4ZFbAW0P7ZYX/wILh/yM7qAZZXXycTVOwEAAJzKzJQiySw3/4ihori2Se7/+CvzgQ/6mYktxYKM0mdja7VFbEVaj62RtmIr0Hps9XJSbLG++BFcPuRnePE6fJHBAAAAXMaq3accii6FeipDna7LfOAbfmZja8mmYy/E1iSbsbXpaWyFZLfF1uD56Z0WW6wvfgSXj/jZegdXQtFZBgIAAHC7u13ODC/mA/f1a19s7baIrR1tsTV2xRYZE+ZYbPUzjK04p8QWP3/4EVw+4mfrHVwxe04zDAAAQKcQuuW4Q5/tamVHdaNcunWP+cDL/ByJranPx9Yq+7E1wkxszbaIrelrpKeTY4ufP/wcDi6+gZ7pp56Ht/UOLoYAAADoLKYlFEri/vMOR1fr4RrqVEMzL09mPnBvv+ZfnuinVJqOrdhnY2uio7G1wFZsJbYrtvYeucD64ud0P4LLQ/3U5mQ7uHYAAAB0Kmr/STtyqV3hpShvuGf3BcrMB+7p5+zYUse/t8WWOv69Lbay2mJrUFCaRWypFxtbj613R4c7Nbb4+cOP4CK4ZFpCARs/AAB0GUtyj0hGOz7fZXnXq+rmA8OXKDMfuJff4+++19fMbGwFGMVWRDtia55FbM16MbbeHhlmN7QcjS1+/vAjuAgumaBtdgAAAF1NR8NLkV9zU+rvNr8QX8wH7uGnYkt9Hs9ubOVaxFaMY7E1XMVWsEVszbcfWz1cGFv8/OFHcPmIn3qviWFwrdoBAADgNizZdEQyOxBdz8eXenyN+aDr/RyLrUKL2Mpvi60Jkdsdjq2BgestYivFIrYSLGJrhctii/kUP4LLx4Mrs+IqmzsAALglgRkHJOPY5Q6HlyKvqkHKr92WK18/YD7oAj9XxNaYUMdjq49lbE0zH1tv9AuR83U3WV/8CC5+YBwPrpwK7nABAIB7MyO5SJIP1jglvCzf71X91Tf6seTML671a09sTbGMrShzsTXMKLbmdjy2Gm7dZ33xI7j4gbH9pR6rILgAAMCT8Y/Nl8idlU553NAS9R6okku35PT1O6Zfssz84oLYin8+tna1xdb4iG0WsZX3NLbUi41bY2tRplvGFvMpfgSXj/gZXeAILgAA8OS7XurR+DQnB1jri5bVI4jqZcvW7oIxvzgvtlZsr/w9tgqMYyv8aWyNbkds+c3suthiPsWP4PLx4Moqr2fjBgAAj2Zp7lHJOFrrkvB6/jHEsrom/U7Y/R9/tXkMva/PL2ZjK6rgzDOxNTm6g7EV5H6xxXyKH8Hl48GVuO8cmzUAAHjNI4edFV+WqM9Jl165o7+CRZ2KqGJM4avzS6fElnrXlhZbQ/XYymiLrQHz1lnEVrJFbK0xHVuv9w12amwxn+JHcBFc2ia1HQAAwOtQpxyuK/tCsiuvdGqAPc+2c43S+O0PPjG/mI2tVY7Gljr+vSOxNdV8bJ2vvc58ih/BxYI4MbiKteCK2g4AAODVzEjaKxHbTzjtmHkzZJ28JpmVV5+5E/bbv//jtfOLU2JrZQdja87T2OrdzthiPsWP4GJBCC4AAIAOMid1n0TvOeWyANt0usHwZczWosvT5xeHYyvuaWz567G1sy22xoVvtRtb6vh3c7EVL28ND3UotphP8SO4WBCnB9d4beMBAADwZWZrARa+/YSkHb4oWSfq2x1a6o5WVuU1m/8dFV3eNr+oY/Udi609xrG1wiK2ltmPrf5zUy1iSx3//jS23hiw2OHYYj7Fj+BiQQguAAAAF+Mfs0uPMHUXTEVYRnmd3ccHc059aTrM1AEb3jK/qJMbzcTWtOdja7VFbEVaj62RtmIr0Hps9epgbDGf4kdwsSAEFwAAQBehPgsWmH5A3z8zjl6SnMp6ya50/F1gKs4sHy301PmlI7E1qR2xNXh+ustji/kUP4KLBWmX3+Yz12XL2UbJrWoguAAAAFwUY/qjiVvL9f11/eGLNkPE8uRCT5xf2hdbuy1ia0dbbI1dscUitjY9ja2QbMPY6teB2PLzj5aGG7eZT/EjuFgQ19/hStp/nk0SAADARSTsqzbcg9W7uzx1fnEktqaaia2wZ2NrhJnYmm0RW9Mdi6279x8yn+JHcLEgnRNc6v0kbIgAAACu+yxYZsVVu4dneNL84nBsxVrE1qp2xNYC+7HV04mxxXyKX5cHF99Az/Qz/JDv8ToZr56fBgAAAJeQaePoeU+bX8ob7tmNrfiSC1ps7bUaWxOfiy11/HtbbKnj39tiK6sttgYFpVnE1lqL2Ep0KLb6BcTJz78+YT7Fz+39CC4P9TN6N0bm8cvaZrANAAAAXMSq/EpZc7BGUo7UenRwmYmtxENfyMzEYtuxFdH+2OqrYmuWa2OL+RQ/gosFaZdfQc2NFy6K68vr9d+6sRkCAAC4juhdFRKxq1JWF56RuJLzklR2UdYdr/Oo4DIdW0ktsRWgYivGsdgabhRb8zo3tphP8SO4WBCnBJe60KdqsZV6tJbNEAAAwIUszjkki3JKZWneUVmx44Ss3HNKYorPSW5FvUfML2Y+s/U0tgotYiu/LbYmRG63H1vBFrGl3rUVuN4itlIsYivBpbHFfIofwcWCtMuv9Q3w6q6Wiq21Ry/rjzYkl11kMwQAAHAhAXH5WowUyrz1+2RB1kFZvOmwhG49LhuPXnT7+cUVsTUm1PHY6mMZW9NcG1vMp/gRXCxIu/xOX7+jx1bqMRVbtZJy+JL+SIO6SI7TNgMAAABwPhNWbpHRoZu08NqihcgOmZ6wR2avLZKgjP1y4OxVt55f2hNbUyxjK8pcbA0ziq25L8ZW94BYl8cW8yl+BBcL0i6/Uw139EcI9btaKrZKL0rCoRpZc+CC/qJGNkUAAADn8/myHBkQtF6GBGfKyGUbZGx4nkxctU0C4vPl0vUmt51fqr/6xnxsxZuNrbynsaVebNwaW4syTcfWy70XuDy2mE/xI7hYkHb5Xbl9/9nYOtgSW+rDu9OTCtkUAQAAnMyIZRvlowmr5bMp8dJrZpL000Ji0MJ0Gb4kWyav2uq288ulW/ccjK0Ci9ja1RZb4yO2aYH5NLZGe0hsMZ/iR3CxIO3yu/7Nt/rntRJLv3gmtmL3nZOlG8tknDo5CAAAAJxGPy2y/jZkufxjZLi8Py5KPvGPkR7TEsRPi4k1m0vdcn5pb2xNjnZ+bPnN7JrYYj7Fj+BiQdrld/fRP/ULpHoPSPz+81psVesnJEUXnZWo7eVsjAAAAE5kSHC2HgEv9Zgvr/YNlr8MWipvDQ+Td8dEykcTo+XMxQa3m186M7aGWsZW0HoZMG+dRWwlW8RWnKnYCo7b7rTYYj7Fj+BiQdrtp+5qqdiK3fd7bO09I6sKqyR2zyk2RwAAACfy4eeRzwTBH7oFyp97L5TXBywW/2VZbje/mI2tWY7G1vLcp7GlXmzcFlsZToutwKhc5j/8CC4WxD380o9c0h8hVHe1VqvYKqjS3wUSX3ha2xy2AgAAQAcZHZYnH46JtBkI24or3Wo+cEpsrbQeW6PMxtacp7HV28HYYv7Dj+BiQdzGb0tlfUtsFZ6RqILTsnL3KYnMPykrd1WySQIAAHSQIVpQ/G3gUpuBMGJOklvNB2ZiS71SZm7q/pbYinsaW/7tiC11/LuzY4v5Dz+CiwVxG7+ic1/qjxBG7WmJrQgttMJ3VkjY9hNslAAAAB1AvaD3Vb+FdiPheFWt28wHZmMrKO2QRWztsYitnW2xNS58q3y+wiK2ltmPrf5zUy1iK6ndscX8hx/BxYK4jd/RSzf0RwjVXS0VWyt2tMSWett9QFw+GyYAAEA76D11jd1AsBYJXTkfOBJb02zFVqT12BrpaGzNaH9sMf/hR3CxIO7zjPZXd/TYCt+pYuuEhG0rl+VabC3bfExmp+yVsRFbAQAAwCSjQu1/XqsVP/9ouXv/oVvMBx2KrdW7ZFJHYivQemz16EBsMf/hR3CxIG7jd+Obb9seIQxVsbXluCzdfFSW5B6R5RvL2DwBAABMMnhRlrxiIhBaI8FWbHXmfGA6ttKfj63dFrG1oy22xq7YYhFbm57GVkh2W2wNnp/+TGz1c3JsMf/hR3CxIG7l1/oI4bItx2RpXktshWw8LCs2H2EDBQAAMEE/LRrMhJYifWup28wHjsbWVDOxFdaO2Jr9NLY+mxzT4dhi/sOP4GJB3MpvbclZ/RHCJVpsLd50WIutMlmUUyrLtb9mEwUAALBNd/9YU6H1et9gwwMyumI+aLz70PHYirWIrVX2Y2vE87G1wHZsfTJptf5+so7GFvMffgQXC+JWfrlHavS7Wiq2gje0xNbCrIMyP/MAGykAAECE8ee13hmxwimf1+rs+aDpwWPJPnnNZGzttRpbE23Fljr+vS22stpia1BQmkVsrbWIrUSnxhbzH35eF1x8Az3b7/jlW/ojhMEbtNDKPiQLVGxlHJDA9P0yafUObVPZAgAAABb018LB7Oe1guO2u9V80PzLE8k59aVTY0u9a8vR2Orbjthy5HvJ/IefN/kRXB7u9+WdRy13tVRsZR6UoIz9EphWIvPW75N5KUVsrAAAABb0mp5o+vNae49ccKv5oD2xFWAUWxHGsTXcKLbmWcTWrNbYijYVW3mFlcx/+BFcLIhn+v3wy/+2PUIYlL5f5mmxNXfdPpmTWiRLtH+fzRUAAGCLjArNlW5aHJgJrTf6hUjDrftuNR84FFtrLGIrRsVWfltsTYjcbj+2gi1ia76t2IoxFVvtCVfmP/wILhbErfyWbTysP0Ko7mrNXVcss9cWyayUvRKif46LTRYAAHyb4Uty5O3hoaZia0xQqvz86xO3mg/UZ7Yci61CU7E1JtR+bA0MXG8RW+r495bY+tSFscX8hx/BxYK4nd/64jN6bM1JbYmtmcmFMiOpQKYn7JGx4VsAAAB8lv6B5j+vFZW21+3mg8fffS95VQ12TyQM3nD0mdiaYhlbUR2MrbmdG1vMf/gRXCyI2/mVXWjUHyFUd7X02EoskGlabE2Nz5fxK7ex4QIAgE/Sa1qi6SPfOxIHrpwPTl+/Yze2luQeb4mt+PbH1jAVW4sy7ceWv+tji/kPP4KLBXE7v/r/+bYltpIKZXriHu2iu1sCtNiaErtL5iRylwsAAHyLUctz5dPxq0zF1vsjw+R87XW3nA/U3S17x78vfSa2Cixia1dbbI2P2GYRW3lPY0u92NgNY4v5Dz+CiwVxO7///e3/a3uEcKqKrTgVWzvFP3qHBKUUyufa5gMAAOALjNRiy+zntUbMSWp7v5Y7zgeXbt1zTmyFP42t0e2ILb+ZnRtbzH/4EVwsiFv6Lc0+pD9CGBC3SybHtMTWxFXbtIvvdjZgAAAgtp4jPqvY7eeD8mu3DWMrdMuJF2JrcrTjsTXUMraC3CO2mP/wI7hYELf0yy29oD9CODlmh0xavV2PrQkrt8q4SDZgAADwDczElvq8VvGRcx4xHxTU3DAMLodjS4vRtthSLzZui62MttgaMG+dRWwl67H18cToTo8t5j/8CC4WxC39jn/xlX5XS4+tqG0yfuUWGRexWbvY5snElWoj2gwAAOC1DJyXKq/1C5E/9TI+kdDPP1r/vJanzAe2gsswtlZaj61RZmNrztPY+nBclKm7hVuLKpj/8MOP4PJ+v7uPftBja0LUVhkfqd47om1AK/JkTNgmmRm3U/vrzQAAAF7J6GUb5IPxq+Sd0RHy96Gh8vqAJfKK3yL5Y/end2YmL05v+7yWp8wHZXVNhsE1d92Bttjy7+LYYv7DDz+Cy2f8ZqzJfya2RoduklHLN4q/eqyQDRkAALyQMWF5MmpJtvTWQqHb1DXy0cRoee/zlfLWiBXyl8HL5NW+wbIgerNHzgfVX31jGFzRe89axNbOttgaF77Vbmypd21Zxlb/uakWsZXkcGwx/+GHH8HlM34p+RX6I4Sfr8hti62RS7WLrLYRjQnLZWMGAACvIyB6h77fDVucJQO1iOgzZ630mJ4gn06OlQ/GrZLQtXs8dj6496jZ9suOsw+/GFsrLGJrmTYHOBpbJo7TV5+DO15Vy/yHH34El+/5Ha5u0MNKxdbIZRtkxNIcPbaGhmSJ/8qtbMwAAOBVqEfn5qTs1Q+NUo/Uq184jliSI4MXZUi/eakyf81Oj58PbH2OK/XoZZmRuFfGR7YjtgJfjK2PTMaWtc/BMf/hhx/B5RN+dx5+33JXS8WWtuEMW6xiS7vAahvPlCgeKwQAAO9idlKhLMw+JPPSSmRWyl799Sjq88zq0fpJK7fIg4ePPX4+aLz70OZdLhVd89aV6C82fhpbm57GVkh2W2wNnp9uHFsT2h9bzH/44Udw+ZTfbG2zUXe11KMVQ4Iz9d/yDVqQLkODM9icAQDAq4gtrJLwnRWybMsxCd5QJvMzDsic1CKZnrhH9p+67DXzga27XK0EpR9wKLb6WcTWxx2MLeY//PAjuHzKL62gUn+EUI+thdrFdUGaDFAvMtQusCOWbZQx6nEDAAAAD2f8ym2SfPiSrDlwQaL3npHI/JMStq1cluQekajtx71qPnj83feSc+pLm8G19kitLNt8TI+tEWZia/bvsTVxdYdji/kPP/wILp/yq7j4lf4I4SAVW/PTpL92gVXPsfedu1bGhW5ikwYAAK9gQfqBp7Fx9LIkHvpCYvedk6iC01JWc93r5oPmX57YjK3Wv44rqZax4ZufxtaCdBkUlGYRW2vbYqvblDinxBbzH374EVw+5ff/nvymP0I4YH7LXS0VW+rEJr/ZKTJ6cSabNAAAeAXxhadfCI/15fWSXHZRbt176JXzQeO3P7wYXNo/8wsBpgXowqxDMnxx9gux1ff32Pp0Uoz8oVugU2KL+Q8//OwEF99A7/ObE7tdj62+c1VspejvJumlXVx7Tk+Ukcs2yRj1fg4AAAAPJut4ndW7PerRO2+eD9QhGtknr+n/rK3/ag0Vn1F7TusHiQwLyWo5JEOLrZ7TE+Td0ZHyX5/Nsxlbb/QLkYZb95mv8MPPCV8Elxf65Raf1B8hVHe19NiakaS/k6T71DXy+fKN+ksiAQAAPJnsE0/v7Gw529jG/su3vX4+aHrwWDafabD5ma6Y4nOyJO+ofnrjuIjN+scM1LvJ/jZ0ud07W47GFvMffvgRXD7nV3e9qSW21F2tGYnSY1qCdNNi67Mp8TJ6cRYbNQAAeFVwWVJc2+QT84E6SGNHdaNhbC3dfFRmry2S8ZFb9I8afDo5Tv4+LFT+2N35scX8hx9+BJdP+o1dlq0/QthdxVZAvBZbcfKJf6x8PClGRi3fxGYNAAAeTY7BnR1fCa5Wyq/dfuafP3ZftX5Mvjoef8LKrfohWuoXrm8OC5OXegTZPSRj75ELzFf44Udw4WeGlG2H9UcIVWyp32p94h8jH02Mlg8nrNbfOM9mDQAABJd3zAfqc115VQ0SV3Jelm85LnPXFcuEqK36uzjVHPDWcC22es63e2frfN1N5iv88CO48DPLkarL+m+01PPa6q6WHlvjV8v746JkpHYBZrMGAABvDK78mps+OR88av5OSi80SHDWQZm4apv+Pk71cYK3RqyQP9mJrTFBqXL/0ffMV/jhR3Dh5yh9ZyW1xNaE1fLB+FXy/tgoeffzlfLO6EgeKwQAAI8m9VCN4YERvjwffPvon7Ln6HmZEpEr/xgZLi/3WmAYWtNDczp0V4v5Dz/8CC6f94tML9IfIfxg3Cp5T8XWmEgttiL0C/CQBRkyJjQPAADAI4nefcowuJqaf2I+0Lh7/6EUHzkn8VnFz3C8qlZ+/vUJ8xV++BFc/MB0lMOnLumPEL73+Uo9tt4e1RJb6lnufjOTZLS2YQEAAHgi0xMLDYOrvOEe8wF++OFHcLEgnePXIyBef4Tw7VHh+nPcb2qx9fehofLXIctlWEgOmzYAAHgsRsGlXn7827//w3yAH374EVwsiOv9ojL3tdzVUrE1LEx/4eFfBy+TvwxaKkOC0rQNKxcAAMAjST98yTC6am4/Yj7ADz/8CC4WxPV+N75+qD9CqF52+Lchy+UvWmy9MXCpvD5gsXwwJpINGwAAPJbg7FLD4FLc//FX5gP88MOP4GJBXO/Xb0aC/gihuqv1xsAl8t/9F8tr/ULk1T7BMmhBBps2AAB4LFkVV5zyaCHzC3744Udw4dduv4RNh/TYen1AS2y92jdYXumzSP7ce6H4TU9gwwYAAI8lcscJm3e5zL6Xi/kFP/zwI7jwa7ffg8c/6o8Q6ne1VGz5LZKXtdhSL0J8o38IGzYAAHg0GcfrbEZX1c0HzAf44YcfwcWCuNZv2NwU/RHCP/st1F+C+JIWW3/sHiR/6BYofWYly+jluQAAAB7JlNh8yTxx1WZ0NX77A/MBfvjhR3CxIK7z23f8C/0Rwj+p2OqhYitQ/uuzefqb5j8eG8WGDQAAHs2CtP02g0t9nqv5lyfMB/jhhx/BxQ+Ma/zUG+XfHLJcjy11V6s1tloZsiiLDRsAADya2ILTdj/PZXSIBvMLfvjhR3Dh12G/JWt2Wo0tRc/JsWzWAADg8aQfs/15rvKGe8wH+OGHH8HFD4xr/K7/z/0XQquVV/0WyvDFG2SUtlkBAAB4KmPDt0iGnc9z1d9tZj7ADz/8Oi+4+Ab6lp+ff7RhdPnNTNI2q00AAAAezfSEApvBpWh68Jj5AD/88OsUP4LLx/y2FlUYBtffBi5howYAAK8gfFu5zeDKq2qQx999z3yAH374EVz4Od/v9b7BhtHVa0YyGzUAAHgFSQfO24yugpobzAf44YcfwYWf8/3is4oNg+vDMREyatkmAAAAj2fsis12X4p8+vod5gP88MOP4MLPuX4NN24bBpdiQGAaGzUAAHgFU2J22f0815WvHzAf4IcffgQXfs71C4zKNQyu7pOi2aQBAMBrWJh58IXISj1WJ5tOXZMcjfJrt5kP8MMPP4ILP+f6Ha+qtXmXa/DCTDZpAADwGhL3nZPEA9WSVHxWIvNPSnTRWUk4VKOHV+Pdh8wH+OGHH8GFn/P9RsxJ4i4XAAD4BMHp+2VeWoksyimVZVuOScSuypboOlijn1bIfIAffvgRXPg53a/4yDnucgEAgG98lit2p8xMKnwhurKPXmI+wA8//Agu/Fzn9/7IMMPg6hkQLyO1TQoAAMDTGRe5RSbH7JQZSQUyb/2+lujafEz2nL7CfIAffvgRXPi5zs/Wi5Bf6b1AhoVkaxvVRgAAAI9lQnie9q8bZFzEZi26dsiMxJboWph9SE7X32Q+wA8//Agu/FzrZ/cu19KNAAAAHsuk8FwZvDBd++sNMlaLLv/oHTI9cY/MXbdPGm/fZz7wEj91+IkR93/8tUM0Nf8kNbcftaHe39Yeqr/6RvdRnxtkfQkuFsSH/Gzd5XrVb6EMC85mwwYAAI9lSNB66Tt37QvRFbiuyGvmg+Zfnkjjtz88EwW2sBYDJZduSUHNjXZRXNtkl5xTX9p9J5ovsaO6UQ+we4+amU8JLhbEF/xs3eXqNimaDRsAADySwUFp8tHEaOk+LUH6zFkrg7ToGrE0R8aG58nqzYc9ej747d//0eOJkPF8yhvuyc9P/sV8SnCxIN7sZ+sul2LQggw2bgAA8Ch6z0iSvw1dLu+MjmyJrqlrtOhK0fY0LbqW5MjOw9UeOx+oR9wILe9CrWf93WbmU4KLBfFmP+5yAQCAt/DphNXyUo/58lq/EPnbEBVdEfKR9u9106LLb3aKDFyQJufrb3jkfKAeHSRQvJfSK3f0u5fMpwQXC+KFfvbucvWft55NHAAA3Br1ueMPtLhq3bte6hEkr/YNlr9q0fX2qAj5UEVXQLweXQ8ePva4+UB9Voso8X7ya252KLqYnwkuFsSN/Wzd5fpwTASbOQAAuC3q8fe3h4W+sH89H129p6+RomPnPXI+UIdPECS+c6eL+ZTgYkG80M/eXa4+s9eyqQMAgNuhnsJQ74802r/+2L0luj74PFIuXr3hkfOBOp68qyMg9VidxB+ocRmri85KeP4pl7Fo01GXMT+nTGauKzFE/eeLNx+XlQVVknKk1tT3Wx2KwnxKcLEgXug3Yk6S4Yb190FL2dgBAMCt6Dd7rc3YaqXvlBipqWv02PlA3fGwFUJLt5TLwo2HZcbaYvAA1HqlHLYfXu05vZD52c2Ci28gfs9/na+7aXPD6j4lXkYu2QgAANDl+M1Ishtain4BcfLzr088ej6wNZQHZh6SaclF4GHMTN0n0cXVNte2rK6J+dTD/Qgu/Kx+TQ/NMdy01G8Rhy7KkhFLNgAAAHQZn02INhVbwXHbPX4+aLz70HAgjy4+J1MTC8GDUWtoK7rUy5GZTwkuFsTL/O4/+t7m5tVjSiybPQAAdAnql36fjFtlKrZSN5d5xXxw6dY9w2E8JPeITFmzBzyYaUl7JfnwJeMXI1+7zXxKcLEg3ugXlbbX9uMZc9ex8QMAQKfHlrWTCK2x98gFr5kPTl83/vzW7HUl4h+3Gzyc+dmlhmucV9XAfEpwsSDe6KeedX+jX4jNY+LZ/AEAoLNQv+j768AldkNL7V3q88jeNB/YCq5JMbvAS0guM77L1fTgMfMpwcWCeKNfXmGlzU2t9/REhgAAAHA5frNSTJ1E+OHocGm4dd/r5gNbwTVh1Q7wEkI2HTFc5+qvvmE+JbhYEG/1Uyc7GW1sf+YADQAAcDHql3vOOInQW4PLP3qnjF+5DbyAgPjdTjmtkPmZ4GJBPMzP3jHxH4+NYiAAAACXoA5pMnsSYXtjy9ODa1ZKkYyN2ApeQurRy1bXuaDmBvMpwcWCeLOf2shsbXTqUQ8GAwAAcCafjl/ttGPfPX0+uHDzrmFwzVlbLJ+v2AxeQlzJeavrnFV5lfmU4GJBvNnP3gEa6kPM+qOFizcAAAB0CFedROjJ84Gt93DN1oJrdGgueAkrdlQYrjXzKcHFgni5n9rUbL6ba3IsgwIAAHQIdRLhO8NDTZ1EeOzMFZ+ZD2wFV8jGwzJq2SbwEtR6ElwEFwviw34j5iTZPrVwZrIMX5wDAADgMH3nppo6ifD1vsHtOonQ0+cDoyF8deEZHkH1IoI3lBFcBBcL4st+DTdu6xudrUcLhyzKZHAAAACH6DUtwdQjhH7+0XL3/kOfnA9yK+ol4WCNVUYv2yTDQ3LAC1i++bjhOjOfElwsiI/4pW8ttftoIcMDAACYpdvkOFOxpZ6yULHlq/vvjhO1sjTvqFX8V++QocFZ4AUsyim1usaxu08ynxJcLIgv+dl7tLDvrBSGCAAAsIvZkwgDo3J9fv89U/eVTEvYY5UpcfkyJDhTBi/MAA9m5NINhmucWlDJfEpwsSC+5Gfv0UL1QmQeLQQAACPUHvH+6HBTsaWerGD/bfn7jluRK8MWZ1tF3R0ZND8dPJihIVmG61tw7ALzKcHFgvian71HC9ULkRkqAADgeQYGpZk69l39Ym9rUQX7r4Vf0uZS+XRynCE9pyfKgMD14IGod5raWtsbTXeZTwkuFsQX/ew9Wqiey2e4AACA9pxEeL72Ovvvc37Xb97R7wy+MXCJIW8OD5Me09ZIv3mp4CF8OjnW5ppOXJzOfEpwsSC+6mfv0UL981za5sqQAQAA6vO9ZmJLnURoK7Z8ff+Nzyo29Sjmn3rO14f1f4wMd5gPxkbJp/6xLqNbQLz0nbPW51Hfi9f6hdhdy+NVtcynBBcL4st+6nEPWxcJ/aj4hZkc9QoA4MM4euw7+2/HnjCBufJa32CX8vehofLWiBXtQv3vVRCb+eeY7ODdLf58uGFw8Q3Ezxl+00NzbF4sPhm3ioEDAMBHMXsSYXDcdvZfk34///pE+gXEEVZezhv9QvS1Zj71bD+CCz+n+KmLwYd2TpvqNjlehoVkAwCAj6COuf547EpTg2Xq5jL2Xwf9iC7vj62GW/eZTwkuFgS/p1/qomDv4tF3TipDCACAD6AeJX9vlLlj3/ceucD+24FfeEal7SVQiC3+fBBcLIiv+OUVVtq8gLzSe6H+G0+GEQAA72Xg/DR5b3SE/Hf/xfKnXgv4DX4n+Knvo73H+8EzGBOU2q7HCPnzQXCxID7kZ++C/8GYCAYSAAAvZdCCdOkxLV7e/XylvDksTF4fsFhethJd6jF0foPvfL/7j77Xf/mp9uI3TJx+B+4VWufrbjKfElwsCH72v8x8nuvTCdEMJgAAXsaYZRv1dwqpl+9+4h8j76noGq6ia4m83Hth2x6gPnfEb/C7xk9939VQr44Zdybq79mK+jxeR1FH3xuhTu1TpzQ6gooZs9ibYZzF+yPD9H+W9K2leigznxJcLAh+DvmZ+TxXr+kJDCgAAF6Ces/WuPA8GRKc2RJdM1R0xcp7Y6OeiS51EmFHY4v9Fz/88CO4WBD8tC/1IWgO0QAA8A1mJ+2R8ZFbZNTyjVaj6y0tutZsPMj+ix9++BFcLAh+zvRTv8m0fYjGAuk7W4uu4GwAAPBQZiXskZnJhTIldpeMX/k0uvoHrpNeM5Lk08mxUnq6nv0XP/zwI7hYEPxc4WfvHSHvDA+VwQsyGFoAADyQ0cs3SfCGMglM369HV0DcLpmwcquMDt0kQ0MyZeTiLDl2to79Fz/88CO4WBD8XOWnntW3d1LS20OXM7gAAHggKzYfldCtxyVkY5kEadE1K2WvFl35MiGqJbpOXLjG/osffvgRXCwIfq72U4do2IuuT8avkqHBWQAA4CGMCcuTmOJzsnL3KavRlXvgDPsvfvjhR3CxIPh1lp+ZQzS6T45hiAEA8BDiC6skqfSixO77Pbq2lWvRdViCMvbL8g2H5NtH/2T/xQ8//AguFgS/zvRTL2O0F109p65hkAEA8ADSy6/I+vJ6SSpT0VUtK/eckjAtuhZvOiyVlxrZf/HDDz/8CC78usLP3smFRBcAgPujTiRMO3GljWQtuuJKqiVqz2lZs7eK/Rc//PDDj+DCryv91Jvc7UVXn5nJDDUAAG5KTP7JZ4LLMroq626y/+KHH374EVz4daWfOrnQ3nHx6h1dfWavZbABAHDHxwkPX3whuPToOnxJ7j78J/svfvjhhx/BhV9X+6noen9kGNEFAOCBZB67bDW4sk9eY//FDz/88CO48HMXv/O11+X1vsH2o2uWFl2LsgAAwE0wCq6Cmhvsb/jhhx9+BBd+7uRHdAEAeHZw5Zy6pt/ZIrjwww8//KwEF99A/NzBT70Y2d4hGq/6LSS6AADchKzyesmtanjhDlfOqS/Z3/DDDz/8LL4ILvzcxs/Mi5FVdPnNSpEhizIBAKALSTM4NEPx0//+xv6GH3744Udw4eeOfkQXAIBnsHzTYauxpV6EXH71a/Y3/PDDDz+CCz939SO6AADcnwkrt1oNrtRjlyXxwAX58dcn7G/44YcffgQXfu7qR3QBALg/GeX1Vt/DtaqgSraeuMz+hh9++OFHcOHnzn5mouu1Pouk57Q1DD4AAF3A/LT9LwRX4qEvZOXuUxKysUwOVTewv+GHH34EFwuCnzv7mYkuBdEFAND5jFi64YW7XGsOXJDwnRWyMPuQzEgqkNN1t9jf8MMPP4KLBcHPnf1MR9dULboWZgIAQCcyd23RMwdmxO47J2HbymV+5gGZuma3fL4iT1J3nZAzlxrk1IWrUnGuXo5X1bbRcOM2+y9++OFHcLEg+HW1n9no+mT8KgYgAIBOJmn/eT241h6tlei9Z2TZlmMyL61EpsTuktGhm6R/0Hr5bEqc/GNkuLxq50X39nh/ZJiMmJMkY4JSTREct11SN5e1kbHzmGwsrJQtB87KriM1srfishw4c032VdVL6YUGudB4h/0XP/zwI7jw800/FV1v9AshugAA3IwRSzZI2tHLklx2UaIKTsuS3CMyJ7VY/KN3yMilG6Tv3LXy8aQYeXN4mLzce2GHgqsj/Ndn8+SNgUvkvbFR0nN6ogxelCHjIjbL9MQ9sjDroKzYUSERO07Io39+x/6LH374EVz4+aZfw637pqLr7aHLZWBQGoMQAEAn8XlYniSXfiGR+ScleEOZzErZKxOjtsmwxVnSe1ayfDhhtfx1yHJ5qcf8Lguul3oE6Q4fjl+tOym3CVFbZWZyoe4cse24ftjHqcs3PHr/vfeoWaq/+kYKam5I9slrLxxsov79qpsPpPmXJ8wv+OFHcPEDg18Homt4qPjNTGEQAgDoJMaFb5ao/MqWAzMSC/S7R0MWZUjPGYn6XaU3Bi6VP3QL7LLgUnfX3hwWpt9tU3fdRizNkUmrt+t340LzjkpgWon+KGRGyRmP3H9VaJXVNVl9P5oRW842SuO3PzC/4IcfwYUffi9G14ejw+1urq/0XiA9piXI4IUZAADQCQwLyZIlOYdkany+fL4iVwYuSJNuU9fIO6Mj5b/7L+6y2NLf39gnWP8cmfo8Wf/AdTJq+Ub9c2bz0/frJyrqaKEYtK7Yo/bfx999L+XXbjsUWtbC6/6PvzK/4IcfwYUffk+/fv71ifQLiDO1yfYIiGcQAgDoRAKid+hBo8Lm08ktB2a80mdRlwaXCr53x0RKdy0AVQiqExQDtDCckbBb/7xZK+qu1+lLjR6x/zY9eCw7qhs7FFuW1Nx+xPyCH34EF374PRtd6hQqMxvtx+NXMQQBAHQi6l1dA+enSb9568RvdooeOv1nJpqmV0CsfDYuyirdJ6x+gfdHrjDcA9SjjH8ZtFTeVwdmzEiUIcGZMi5yi8xcky9jw/N0VIC1kCsbik+7/f575esHVj+j1VHKG+4xv+CHH8GFH37Pfqljf00dJzwqXAYErWcQAgAAPQiHL8nWGba4lSydaau3ufX+e+nWPcmsuOr02GpvdDG/4IcfwYWfD/jlFVaaiq6/DlgivWcmy+AFGQAA4OOMDd2o/yJOvStMPf5oSd31Jrfcf1VstYaRvehKKrsoqwvPSOjWExK+86QkHPzCJdHF/IIffgQXfj7it7WoQl43+VLNHlPiGTYAAHyYoQszZIAWVr1mJOmoRw11pidKj+kJklN4wu32X8vYamV9ed0L/15M0TmZnVIsE1Zul4lRO2TSql0yOTpfpsTsllnJ+yRqT5VTo4v5BT/8CC78fMjvfO1109H18bhV2ma7nsEDAMDHGDI/TT7xj9WI0VFHxVvy0cRombAs2632t3NfNknK4UtWw2jdsafRtTCrVD5fsVnGhW+V8RHbrEZXQGyBzFt/wNQdLzPRxfyCH34EF34+5nf3/kPx8482FV3qfV08YggA4DsMX5Qp736+soUxkW2oo+tbiNB5e1SE2+xvDU13ZcXWYxJVcNowulKO1GoxtUtGL8+VMaF5pqJrRmKRU6KL+QU//GwEF99A/LzZz+xhGq/1WSQ9A9YwiAAAeDn9562X97S4+vvQUPnb0OUtDGnhr60MXiZTQjfIV7e/dZv9LSznkMxeWySLNx22Gl1rj14W/9U7ZOTSjTJq2SaXRJd6qTLzC374OQ7BhZ/X++09csH0O1o+Gb+aRwwBALyYnpNj5LV+ITqv9g1+Sp8W1LvCtu477Vb724a9FTI0JEuLpW1Wo2vt0Vr9Pxseki0jFud0SXQxv+CHH8GFn4/7Ndy6Lx+ODjcVXX8buFR6zUySQQvSAQDAi+g9bY38sXvQ7wTqqPdztfKX/ovlQt0tt9vfegbE6/uStehKOFijhdQWGbIwQ4YGZ3VZdDG/4IcfwYUffg69JFnRzT+WAQUAwEtQx7y/5rfQ8Jr/Rr8Q/Zdz7ra/qdN33xi4RH9hs7XoGrsiTwbNT5PB2j9jV0YX8wt++BFc+OHX9pW6ucx0dL03Klz6zFnLsAIA4OnBNSPR5vVePX7ujvvb5MXpLUFoJbrGhudJ/3mpMjBwfZdHF/MLfvgRXPjh98zX+bqb+m8zzUTXq34L5ZOJ0QwsAABeencrNGmn2+5v748Me3oXziK6hgRnSr+5a3XcIbqYX/DDj+DCD78OP2LI3S4AAM+k70zju1vqvY3qVSLuur+98OijRXT1mZUsfWenuEV0Mb/ghx/BhR9+hl95hZWmo6vtbtf8dAAA8BDeH7HC8LquPiPlzvub1c+badH10YTV4qeFpLtEl5mXIzO/4EdwsSD4+bCf+qB0v4A4x+52zV7LIAMA4Oaoa7W9u1vuvL/5+UcbRlfPqfFeG13ML/gRXCwIfl7opx4xjErb69Ddrs8mxTDQAAC4MX1tHJYRGJXr9vubcjTyVy9v7jVtjVdGF/MLfgQXC4KfF/s5cqCG4u3hodJ9agKDDQCAO97hsvH0QvGRc26/vylHW3uQt0YX8wt+BBcLgp+X+6m7XdNDc0xHl/7erkkx2ga3jgEHAMCN6D5hleF121P2N8uTCn0luphf8CO4WBD8fMRP/WZRPeNvNrr+3GuBdJsSKwO1zQ0AALoeo+v1iDlJHrO/Ha+qtbv/eFt0Mb/gR3CxIPj5kJ/6QHXriyfN8sGocOk1I5FhBwCgC+k3L9Xmu7c8aX8zc6LuW8PDpPf0BK+ILuYX/AguFgQ/H/RTv2G091jH83w6Pkrf8Bl8AAA6n+5T1xhen+Ozij1ufwuO225333lnVLhXRBfzC34EFwuCn4/6qbtd6reijkTXK70X6KcZMvwAALhPcLW+f8vT9jdfiS7mF/wILhYEPx/3O1973fDdKEb8dcAS6T0tUQYGpQEAQCfQPcA4uNRTC566v/lCdDG/4EdwsSD44aeTvrXUoUM1FO+PDhe/WSkMQwAALmZI4DqvDC5fiC7mF/wILhYEP/yeeczQ1ospjY+Rj2UgAgBwIX1mJnltcKkvM68veXd0hEdGF/MLfgQXC4IfflaP7XX0McN3hodJr+k8ZggAwCOFju9v6p2R/Wy82LmVD8ev8rjoYn7Bz6uCi28gfvg512/vkQvyRr8Qh8Lrs4kxDEcAAJ0YXOpa7Q37m3rKwswv+9wxusrqmphf8PMJP4ILP/xc4Kd+65i6ucyh6Hp7WCh3uwAAOim41DXaW/Y3b4wu5hf8CC4WBD/8TH3df/S9qWfsW3nVb6F8PGG1DAhaDwAAHaS3FhW+EFzeGF3ML/gRXCwIfvg59HW+7qZ8ODrcdHh9OCZS+s5NZWACAOggRtfZMUGpXre/eVN0Mb/gR3CxIPjh167HDOOzih16b1fP6YkMTAAAHeCtwcusXmPVYRPeuL+p90Tae13JH7oFymf+MW4dXcwv+BFcLAh++LXbz9GXJuuPGGqbHwAAOE437RpqdH311v3NG6KL+QU/gosFwQ+/DvuFJu00HV0fjY2SvnNSGZ4AABykt41j09Xj3t66v3l6dDG/4EdwsSD44ecUP/UemPdHhpmKrn8MXS69ZyYzQAEAOED3KcbBlVdY6dX7mydHl5mXIzO/4EdwsSD44WfKT33IefLidFPR9UrvBS2f62KIAgAwRc9piYbXVHWKrLfvb0QX8wt+BBcLgh9+v5O+tdTmhvhfn83TN8WXegRJj4A4BikAAJO81meR1euqekm9L+xvxUfO2f2F3ks95mt7S7zXRhfzC34EFwuCH35tv4m09oihiq0/dg/UN8Q/9Vogf+69UHoRXQAA5j7HNSXWMDQabt33if1ta1GF3eh6ufcCr40u5hf8CC4WBD/8DB8xVHe1/tg9SF7qOV9eVrHlt1Be7RMsr/ULkZ5TiC4AAHv0Clhj93NcvrC/+XJ0Mb/gR3CxIPjh9wLx2cVtjxD+ScVW74Xyit8iebVvS2y9PmCxvDFwqXSbFK1thJxgCADQns9xtb6Py1f2N1+NLuYX/AguFgQ//KyyrbhS/j54mf4I4St9WmLrv/sv1mJrifxl0FL5q/af/W3ocukxOU7bCNcxWAEAGPDm4KWGgXH/0fc+tb/5YnQxv+BHcLEg+OFnSE1do7w9LFS/q6Vi642Bv8fWkOXy96Gh8ubwMHlrxArpPiVW/GalaBvhOgAAeI6ek2NtPlboa/tb6uYyu9H1ap9F0nPaGreLrvq7zcwH+BFcLAh++DnXT32ua8icJP0Rwr+ou1oqtrQIe0uLrX+MDJe3R0XIu2Mi5dNJMdJnNtEFAPA8n2jXR1uPFfri/hYct91udKlf8rljdDV++wPzAX4EFwuCH37O9bv34KHMWZmrP0L45rCWu1oqtt4Z3RJb742Nkg/GrZLu2uDQZ/ZaBiwAgOd41W+hYVioU2J9cX/zlehifsGP4GJB8MPPNMuS8/XYenuUiq1IeffzlfK+iq3xq+SjCavl40kx0kvbFPvOIboAACzpZuMul/pck6/ub74QXcwv+BFcLAh++DlEbE5Jy10tFVvjouTD8avlo4nRemx9OjlWPpsSL31ma5vhnFSGLACA3/lscpxhUMRnFfv0/ubt0cX8gh/BxYLgh5/DFBw+pz9C+OGEltj6xF/FVpx0C4iX7lPXSA9tQxwwN1U/Mp5BCwBgnf64NcFl7GcmutTpuJ4YXcwv+HVpcPENxA8/z/UrPFKt39X6xF/d1fo9tqYlSM/pidJrZpL01jbCQUEMWQAArRiFhDq1z9f3N3VAk59/tN3oemdUuFtG16Vb95gP8HNLP4ILP/w83K/o6Hn9EcJu6q6Wiq0ZidJbiy0/bfPrM2et9NM2vyEL0xm0AAAILrt+3hpdzC/4EVwsCH74dciv+PgF/RHCXjNa7mqp2Oo7tyW2+getl4Hapjd2+UaGLQAguAguu37eGF3ML/gRXCwIfvh12G9feY0eW33mqNjSQitwnQxQsbVA2+wWaptdcKaMX5ErAwIZuACA4CK4fvSp6GJ+wY/gYkHww88pfiUnvmi5q6Via762yWkb3OBFGXpsDVusbXJLssU/crP+3wEA8EUILvN+7hxdqcfqHIou5hf8CC4WBD/8nOa3v/Ki/gjhIHVXS4utoSEqtrSNbYm2sS3bIKOWb5SJkXn66YUAAL5Er+mJBJeDfg03bsvrfYNtBtcfugXq74HszOiat/6AQ9HFfIAfwcWC4IefU/12H6nW72oNDWm5qzViaUtsjQ7dJGPCcmVseJ5MWJHLAAYAPsWnNt7DRXAZc772usdHF/MBfgQXC4Iffk73S95+RI+tkUtb7mqp2Pp8RUtsjYvcom1gW2W0FmEMYQBAcM2VY2eusH94cXSZeTky8wt+BBd++OHnsF/KzmN6bI0JU7GVJ2MjNst4FVtRW2Xiqm0yLT5f/5wXgxgA+AI9bATX+bqb7B9EF/MLfgQXfvjh57hf8Lq9LXe1VGyt3KJtVttk0urt4h+9Q6bE7pRZiXtkgLb5MYwBgLfTV4sAo1BouHWf/YPoYn7Bj+DCDz/8HPd78OifsiStuCW2VrXE1uQYFVu7JCA+X6at2S3zUgoYxgDA6/loTIRhJLB/mOd4Va3dkwtf6hEk3abEem10Mb/gR3Dhhx9+z3Dt5h2ZocWVZWxNVbGVsEdmJBbIzORCmar9+wxkAODNvNJ7gdU4UEefs384xtaiCrvR9bL2/fbW6GJ+wY/gwg8//F7giy//R4utnRIQ92JszV5bJHNSi2V8OMfFA4DvHQk/eXE6+wfRxfriR3Dhhx9+Hffbf+qyTF2zW6ar2Ep6Nrbmrf//27v3J6nKOw/Af0oqFXWj0dQGFbkNICAETURRhOEmF010QXAA5U7PhQEdBQVBNICIJFEGVHRwEIUoRgGVoIloxJXN4hhwDWWtIWuylVS9O6cJLsicnp6Z7p4+Pc9UfQrzU56at3nP98M5/Z6nw/RV29IXPMOZiHSlAzNWbmhw/VC6rC+fwsXHx5cb35pnXwu31m0OP7m/Pl22bn/gVNmasvLZcMdD28LMh58Lg29bJiJSUikrT8WfUHjgfdcPpcv68ilcfHx8ufH98bPPQ+qxHeG25VHZejr824pnwtSobK3aFqavfi7cuaYh/PTeJw1oIlIyGXjrfbFFIDpxz/Wj41m3eXerpev8q+4M/ScuKYnSZX7hU7j4+Pgy5sgnx8KMh58LU6Ky9dCzYdqq58L0h59Pl60Zj24PM3/2Qhg2Y7VBTURKIn3G1sSWgCmpta4fOfJV1G5stXRdNHRmSZQu8wufwsXHx9dq3vjtR+lHCKetPlW2Kh6JytYLYdbaxnDXuh1hweM70+/nMqyJSNJzcfOQH1cAtja+7vqRQ19XKV3mFz6Fi4+PL7vn7hv3p+9qVTxy6q5Wumyt3xFmP7YzzHn8pVCxapthTUSSfXdr3OJWHyd0/citryuULvMLn8LFx8eXVY599nmo2vTyqbK1bke4e/2LYfaGnWFuc9ma98TLYf6m3c0Xs0cNbSKS2HQbNrvVxwldP3LvK/XSZX7ha1Ph8gvk4+vavj+e+DL9COHdj70Y5kRla+PLzWVrV1jw891h4S9+Fap/udvQJiKJTM/yqowDf9PxE64fefRFhba10nXxj+4q2tL19kefWF++nPwoXHx8fOHlgx+nHyGMytb8TafK1qJfvhJST74aKjfvCdNWPG14E5FE5cpJ94R/uerO2EE/ugPj+pFf39GmY2HQuOpWS1e34fMSV7qsL5/CxcfH1+afhxr2px8hjO5qpcvWU6+Gqs2vheotvw41W19vvritMsSJSGLS/Yb5Wd/dcv3In69US5f15VO4+Pj42vxz7IuTp8rWk6+Eyqf2hKr6U2Vr8dOvh9pn9obFm19tvvAtExEp+vQcmco43H/z7pbrR359pVi6rC+fwsXHx9eunx1v/z79CGF1c9mK7motfvqNsOTZvWHptn3hnuf3N1+cNoWrmi98IiLFmp6jKjMf1DBkRvjy5FeuHwX2lULpevc/PrW+fAoXHx9fx36Of/6n8EDD/nTZqn3mn2Xruf3h3uffDHXb3wrLtr9poBORok2f0VWtDvQvvvau60cn+ZJeuh7+1e/Cx59+Zn35FC4+Pr6O+d470pR+hDB9VysqWw1vhvuay9b9jQfCsh2/CbMeaTDYiUhRZcAtdaHnyEWtDvItPUro+lFY36EPj6Tff5Zpnb7Vd0roWZ4qytL1xBsfWF8+hYuPj6/jvid//V76EcK6hrfCfS+8nS5by1/8TXhg58Gw8qV3wtVTHzTkiUhRpOzm2nDpdXNaLVtDJtS2+Cih60fhfXsPvJ/o0vXq+3+wvnwKFx8fX8d8R4/9V/oRwvuby9ayHQfSF58Hm4vW6YvNvPU7DHoi0ul3tbJ5hDCbsuX6UXhfkktX9Gjh3/7+D+vLp3Dx8fF1zLf7d0fSjxBGd7XOLFunM2zGakOfiHRK0epdXhkuGDQ9q7IVHZLxzSPgXT+Kw1fMpeuOhxoy3uV65+jn1pdP4eLj4+uY77M/nQird8VfbGqefMXwJyIFfXSw18hUOH/gtKyKVrZ3tlw/OtdXzKVr7sbdsdfAX+w/bH35FC4+Pr6O+974/X9+fXFZt+fQP/Ne+s+Hd7nLJSL5S/9J94Qeo6tC/3E14ZJrZmVdsk5nxNTlWZct14/O9e3cc6DV9fx2/6mhbHx1QUvX5KVbMj5amMvHCn3+FC4LwsfXhX1RwXKXS0Ryfbeq95jqdKJSddWkJelE5arPyEVtuovVUpav3+76kTDfhi27Wl3X7wyYVvDStWDTK7HXwKYvTlpfPoWLj4+v4763P/ok43Psw5ovZFf95H4RkRYzYHJd6FF+qlT1GDG/Q0Uqm0cI9x487PqRUF8xlq7pqxsK8j0unz+Fy4Lw8XVxX/QIYdwFZ976xjCo+UInIhKl38Sloc/YmvTdqu9fc1deC9aZB2O0566W60fx+YqtdE15cFvs9W//kePWl0/h4uPjy40v012u6L1cQ6c8YNAU6aIZMPneghesbxattnxXy/Wj+H3FVLpuf+BZhYtP4eLj4yuM79Ff/TZ9THyU6CXIZ+bOVc8aPEW6UHqNqQ5lo6vC5dfPLWjBOp1B46pDfeO+nBQt14/i9K3bvLvVz8H5g6aHfhMW57V0zXy00Xe4+BQuPj6+wvj2vHck3Pv8m2en4VTqnt9nCBXpInexsn3/Va5z/W11YeWGhnDowyP25y7iq6jd2Orn4sKhM/NaupZu2xdbuL786n+tL5/CxcfHlzvf8c//FOqe2xcWP/3GOal95o0wauF6g6lICZasfqMrO6VcjZ+5MixZvTV9ZLj9uev6OrN0/eS+LbFl67Fff2B9+RQuPj6+3Pu27Xs/VD61p8VUbXrZkCpSAiUrOqq9bNSivD4OOCW1Nn23KipTpxO9ANf+zNeSrzNKV/mCDaGu4a3YwvXSoU+sL1/2hcsvkI+PL1vfFyf/GuZv2h2ba6atMLSKJDD5vJMV3a2K7lRFx7X7zhVfe31RSS9k6Zr3xK6Mr0T5+NPPrC9f1lG4+Pj42uTbuOudMPuxnS3mtvs2G15FEpKy8bWhT3lVzr+TdbpgffNRQPszX0d92ZSu710zq8Ola97GzGVr64GPrS+fwsXHx5c/33t/OB5mPLq9OS+ck7nrX2y+sN0nIkWaAZPuDf3HLw7fGzozp48IzqnbFLY2vm5/5su7L/q8tfaZ7Hb93HaXrrmPvxSWNR7IWLiiwzKsL5/CxcfHl1dfauNL4Y5V28K0Vc+dk+jCZbAVKa6UjTt1NytXJSs60OLMEwPtz3yF8h1tOpa30jVnw86vS1Vc6Tr97i3ry6dw8fHx5dW3fd/74fYHtp6Rp7/OHcvqDbgiRZI+Y2pCt+vmdLhgXTi4Iv04V/RC2mjgtT/zdaYv29IVfacrm5cjR3e3zixbp/PQrrP/d8O7f7C+fAoXHx9fYXwn/vsv4Za6p87JrXWbw+3LtoSBt9aJSCflykn3hN7lleH719yVk5LV2qOC9me+zvBlW7q+3X9q6DZ8XoulKypcN8x+JNy5piGknno13P/C2+eUrkdffS/95y/2Hw5/+/s/rC+fwsXHx1c438K1L4QJtT9vMT+avtLgK1Lg9J2wJJSN7vghGJPnrAn1jfvsf3xF74tKV/fhc7P6XH+r75Tw3SEzwuU3LQx9xtWk/878uGJVGJN6PPx02ZYw82cvxJaup9786KyyZX35FC4+Pr6C+Hbsez+MqXy8xdxSu8kALFLAotVrZMfemzVkQm1Yt3n3Wce22//4kuCL3t8W3Y1ty+f9oqtnhe4jU2FA89+fa2eszli6vnlny/ryKVx8fHwF833+xckwcv66FjOx5gmDsEiRF62LhsxIv1D20EdN9j++RPui0pXtna62lK64smV9+RQuPj6+gvlmLN8Sht/9SIsZfNsyQ7FIERat6G5W9Mhgay8htv/xJckXPV4YvQMuV6Xr2f2/t758ChcfH1/n+57b8276GfiWMmbezwzHIjk+DKPXqFS7i1Z0N2vvwcP2P76S9kWvK2jLI4bfLF23Lv1leOff/2h9+RQuPj6+4vAdafo8/HDqg19n6BkZM3+tIVkkR4mK1vkDp7XrscHl67eHpuMn7H98XcYXvR8uOmGzLaVrwMSl4fHnXw9/+epv1pdP4eLj4ysu35i5PwuDfnp/ixl4S52IdCB9x9WEi4fObHPR6nHj/HTRau2xQfsfXyn7oscMo3fHRS/qjv7xoaV/kDh9Kuef//KV3x+fwsXHx1ecvqXrtod+k+5pMQMm32toFmlP0bp5Sbjs+rntKlrR8Gj/4+Pj41O4LAgfX4n4XjvwYeg9rqbF3FDxkOFZpI1pz/e0ohPaclW07H98fHx8ChcfH18R+f78P38N3ZsHxJZyze33hwG33CsiWaTn6Krwg2Gz21S0osMBokem7H98fHx8CpcF4eMrYd/IGQ+FbjfMbzEGaZHW07s81eaitWT11vR3VOx/fHx8fAqXBeHjK3Hf/AfqwyU/nh0uufbclI1fbKAWiStaY2vafFdrTt2ms4qW/Y+Pj49P4bIgfHwl7nvmpbfCd3848+tcOPT/Ex21a7AWaeERwvLKcMGg6VkXreilrtFx1/Y/Pj4+PoXLgvDxdTHfBx9/Gs4bOP3cNA+TA292h0vkzPSfuDRcMWJBmw7E2Nr4uv2Pj4+PL6mFyy+Qj48vF75v9Z3SYvqNrjJki5xxMMZ5A7J/gXFqRX3W79Ky//Hx8fEVp0/h4uPjy4kvetwpbmiM3scl0tXTfcTCrIvWkAm14dBHTfYXPj4+PoXLgvDx8Z1K9EX+uOGxbHytgVu6dNryCOHy9dvtL3x8fHwKlwXh4+M7Oys3NMQOkD3Lqwzd0iUTfV+r58hFWRWtHjfOD3sPHra/8PHx8SlcFoSPj+/c7NxzIHaQvHJcjeFbumTZ+tcf351V2Zo8Z03W39Wy//Hx8fEpXBaEj68L+qLjqjMVrisn3yPSZdJv4pKsytZFQ2aE+sZ99hc+Pj4+hcuC8PHxtZ7Y73CVpwzh0qWSzXe2okcI23owhv2Pj4+PT+GyIHx8Xdg3aFy1wiXKVhZlK/q70tFHCO1/fHx8fAqXBeHj62K+TEfDG8SlKySbo9+jvydHm47ZX/j4+PgULgvCx8eXu6PhDeNS6ulRXtlq2ZqSWmt/4ePj41O4LAgfH1/7smT11thBs8/4xYZyKelDMs4bMK3VxwjtL3x8fHwKlwXh4+PLS+HqMaoyXDnpHpGSzGXXz221bEWPEdpf+Pj4+BQuC8LHx5eXd3EpXFKqae3FxhcOrjinbNlf+Pj4+BQuC8LHx6dwibSSXmOqW/3e1t4D79tf+Pj4+BQuC8LHx5ffwtV3bLUBXUouP7h2dsaytWHLLvsLHx8fn8JlQfj4+PJfuAZPWhr6i5RQerTyKOH4mSvtL3x8fHx8ChcfH1/ufIc+PKJwSZdIn3E14YJB02M/792Hz23xe1v2Fz4+Pj6Fy4Lw8fF1KAqXdIV0v3F+xrtb0d1e+wsfHx8fn8LFx8encIm0MVeMSmX9cmP7Cx8fHx+fwsXHx6dwibQhmQ7KiDsC3v7Cx8fH14ULl18gHx9fLn2xL36dUBv6T1wqkuj0HFWZ8e5WfeM++wsfHx8f31lRuPj4+BQukSxz8dBZsZ/xEVOX21/4+Pj4+BQuPj4+hUskH3e39h48bH/h4+Pj41O4+Pj48udrOn5C4RJ3t+wvfHx8fHwKFx8fXz580b/wK1xSiukxMvPJhNE/Nthf+Pj4+PgULj4+vk4rXGVjqgzukthkOpmwonaj/YWPj4+PT+Hi4+Pr3MIVvbvI4C5JTGvv3WrP3S37Cx8fH5/CZUH4+PhyWri6Nw+t/SYuEUlceo9cGPu5njxnjf2Fj4+Pj0/h4uPjK4xv+frtCpeUVtkaW53TkwntL3x8fHwKlwXh4+PLS+GKBlcDvCQtvUYuyunJhPYXPj4+PoXLgvDx8bX7J7WiPnY47TdhiUjicv7AabGf6frGffYXPj4+Pj6Fi4+Pr3C+6F/8FS4plWQ6Cv6iITPsL3x8fHx8ChcfH19xFK5uw2Yb4CVxyXRYRvT4rP2Fj4+Pj0/h4uPjK6gv9vtbNy00wEuyytaY6rwcBW9/4ePj41O4LAgfH1/OC1e/0VWGeElU+oyuzMtR8PYXPj4+PoXLgvDx8bXrJ9M7uAbdvNgQL4nKD66dnbfDMuwvfHx8fAqXBeHj42vzz4uvvRs7oF42wiOFkpz0LK/K62EZ9hc+Pj4+hcuC8PHxtfkn40uPRy4KfSfUiiQimd69VVG70f7Cx8fHx6dw8fHxFd4Xfa8lbkg1xEuScsnVs2I/y9GdXPsLHx8fH5/CxcfHV3DfkOZBtaUBNRpeDfGSlPQoryzI44T2Fz4+Pr4uVLj8Avn4+HLhixtSe45YEPreXCuSiPQZE//9rSmptfYXPj4+Pr42/yhcfHx8Hfbt3HMgdki9auISg7wkJt2GzYn9LG9tfN3+wsfHx8encPHx8RXet3JDQ/wJhTe6wyUJubs1ribj44T2Fz4+Pj4+hYuPj69TfONnrowdVHuMqjTMSyLSY2Qq4+mE9hc+Pj4+PoWLj4+vU3wXDq5ocUi9YNB0g7wkJmXlqYwvO7a/8PHx8fEpXHx8fAX3Zfr+Vv8xVQZ5SUyifyCI+yx/efIr+wsfHx8fn8LFx8dXeN+S1VvjHyccmTLISzIeJxwVfxx89MoD+wsfHx8fn8LFx8fXKb5B46rjj4QfUxXKbl4sUvTpOzb+OPjl67fbX/j4+Pj4FC4+Pr7C+442HYsdUrsNm22Ql8Qkel9c3Gd578HD9hc+Pj4+PoWLj4+v8L7ovURxQ2rf0ZWhbPxikUQk7nMcxf7Cx8fHx6dw8fHxdYpvSmpt7JB66Q0LDPKSiFw+YmHs53jynDX2Fz4+Pj4+hYuPj69zfN2Hz40dVHuPrTbMSyLSd0z897fWbd5tf+Hj4+PjU7j4+PgK7zv04ZHYIfWKG+YZ5CUxyeb7W/YXPj4+Pj6Fi4+Pr6C+DVt2xQ6pfcpTBnlJTDK9f8v+wsfHx8encPHx8XWKb/zMlfF3uEYpXJKMRJ/VuM/xiKnL7S98fHx8fAoXHx9f5/guHFzR4pB6/sBpBnlJTuEauajV92/ZX/j4+Pj4FC4+Pr6C+vYeeD/+sIybFhrkJTHpl+HAjBdfe9f+wsfHx8encPHx8RXet2T11tghtXtz4eozvkYkEbnsuviTNr88+ZX9hY+Pj49P4eLj4yu87/rb6mKH1B7llaHPuBqRRCT2c3zjfPsLHx8fH5/CxcfH1zm+uCH1kqtnGeIlMbksw3HwZ77w2P7Cx8fHx9ehwuUXyMfH1xZf9L2WuCE1+j6MQV6Skl4ZTiiMHpu1v/Dx8fHx5SIKFx8fX5t8qRX1sUNqtxvmG+QlMSkrr4z9LO/cc8D+wsfHx8encPHx8RXeN2RCbeyQ2ssdLknSHa6bFsZ+lo82HbO/8PHx8fEpXHx8fIX1NR0/EX93a9gcQ7yUxIEZ3YfPtb/w8fHx8SlcfHx8hffVN+6LHVL7urslCUqPDI8TRqdw2l/4+Pj4+BQuPj6+gvsqajfGDqnRiW8GeSmFEwpbOjDD/sLHx8fHp3Dx8fHl3XfRkBmxQ6ohXhKV8vgTCjds2WV/4ePj4+NTuPj4+ArrO/RRU+yAWjZqUeg9tlokMYk+s205odD+wsfHx8encPHx8eXVt27z7tgBtXd5yhAviUqmEwrtL3x8fHx8ChcfH1/BfZPnrIkdUC9vHl4N8ZKktPWEQvsLHx8fH5/CxcfHl1df3ID6/WtmGeAlUek5uu0nFNpf+Pj4+PgULj4+vrz59h48HDug9mseXg3xkqRcemPbTyi0v/Dx8fHxKVx8fHx586VW1Mc/gjXC44SSrFyeoXCt3NBgf+Hj4+PjU7j4+PgK6xsyoTZ2QO3pDpckLAPG17T5hEL7Cx8fHx+fwsXHx5cX35cnv4p/2fF1cw3wUlJHwh/68Ij9hY+Pj49P4eLj4yucr75xX/z3t8ZUGeClSxwJb3/h4+Pj41O4+Pj48uKrqN0YO5x2Gz7PAC+Jy/kDp7X5SHj7Cx8fHx+fwsXHx5cXX48b58e/8NjwLiX0Dq5MR8LbX/j4+Pj4FC4+Pr6c+5qOn4g/LGPEAsO7JC5XjErFfqanpNbaX/j4+Pj4FC4+Pr7C+dZt3h1/d6s8ZYCXLvMOLvsLHx8fH1+7C5dfIB8fX5xv/MyVscPp5Td5/5YkL9H3DuM+09EBMfYXPj4+Pr5c/yhcfHx8sb4LB1e0OJhGhw4Y3iWJGZThnXJ7Dx62v/Dx8fHxKVx8fHyF8UXvI4obTKP3GBneReGyv/Dx8fHxKVx8fHzt9O3ccyB2MO2lcEkJvvTY/sLHx8fHp3Dx8fEVzBcdIBA3mEYHDxjeJYnpk+GUQvsLHx8fH5/CxcfHVxSFKzpa2/AupVS4ovfN2V/4+Pj4+BQuPj6+gvmidxJ54bF0lZcej5i63P7Cx8fHx6dw8fHxFc53/W11CpcoXPYXPj4+Pj6Fi4+PT+ES6VjhSq2ot7/w8fHx8SlcfHx8CpdIexO9rDvuM718/Xb7Cx8fHx+fwsXHx6dwibQ30emaChcfHx8fn8LlA8PHV9SHZlw0ZIbhXUqucNU37rO/8PHx8fEpXHx8fJ17LPx3rrwj/Wf0aJYBXkqpcO09eNj+wsfHx8encPHx8RXOt2HLrtjhtNeoRQZ4SVzKRlcpXHx8fHx8CpcPDB9fcfgOfXjkrIH0vAF3fP3f3/vhTAO8JC6DJtQqXHx8fHx8CpcPDB9f8fi6D5+bHkYvHjrznAH10uHzDPFSMoXr0EdN9hc+Pj4+PoWLj4+vsL4ZtRtaLFun02PEgvT3Yq4YlTLQS6ILl/2Fj4+Pj0/h4uPjK7hv/8EPwoWDK2KHVJFSif2Fj4+Pj0/h4uPj6xRfS6cViihc9hc+Pj4+PoWLj48vB76jTce+/i6XiMJlf+Hj4+Pja2Ph8gvk4+NrzRcdKBC98NhgLqUa+wsfHx8fX758ChcfH19WvqbjJ8KIqcsN56Jw2V/4+Pj4+BQuPj6+fPnqG/eFIRlOexNRuOwvfHx8fHwKFx8fXwd90R2v6GWxy9dvj0104EYuk+n/qz3h4zsd+wsfHx8fn8LFx8fHx8fHx8fHx8encFkQPj4+Pj4+Pj4+Pj4+hYuPj4+Pj4+Pj4+Pj0/h4uPj4+Pj4+Pj4+PjU7gsCB8fHx8fHx8fHx8fn8LFx8fHx8fHx8fHx8encPHx8fHx8fHx8fHx8SlcFoSPj4+Pj4+Pj4+Pj0/h4uPj4+Pj4+Pj4+PjU7j4+Pj4+Pj4+Pj4+PgULgvCx8fHx8fHx8fHx8encPHx8fHx8fHx8fHx8SlcPjB8fHx8fHx8fHx8fAqXBeHj4+Pj4+Pj4+Pj41O4+Pj4+Pj4+Pj4+Pj4FC4fGD4+Pj4+Pj4+Pj6+hBcuv0A+Pj4+Pj4+Pj4+Pr78+BQuPj4+Pj4+Pj4+Pj4+hYuPj4+Pj4+Pj4+Pj0/hsiB8fHx8fHx8fHx8fHwKFx8fHx8fHx8fHx8fn8LFx8fHx8fHx8fHx8encFkQPj4+Pj4+Pj4+Pj4+hYuPj4+Pj4+Pj4+Pj0/h4uPj4+Pj4+Pj4+PjU7gsCB8fHx8fHx8fHx8fn8LFx8fHx8fHx8fHx8encPHx8fHx8fHx8fHx8SlcFoSPj4+Pj4+Pj4+Pj0/h4uPj4+Pj4+Pj4+PjU7h8YPj4+Pj4+Pj4+Pj4FC4LwsfHx8fHx8fHx8fHp3Dx8fHx8fHx8fHx8fEpXD4wfHx8fHx8fHx8fHwKlwXh4+Pj4+Pj4+Pj4+NTuPj4+Pj4+Pj4+Pj4+ApXuPwC+fj4+Pj4+Pj4+Pj48uNTuPj4+Pj4+Pj4+Pj4+BQuPj4+Pj4+Pj4+Pj4+hcuC8PHx8fHx8fHx8fHxNef/ALbnIWRORaZ8AAAAAElFTkSuQmCC;" vertex="1" parent="1">
          <mxGeometry x="40" y="160" width="110.26" height="80" as="geometry" />
        </mxCell>
        <mxCell id="3KESqyqhZTct8W2ELvNK-5" value="" style="edgeStyle=orthogonalEdgeStyle;rounded=0;orthogonalLoop=1;jettySize=auto;html=1;" edge="1" parent="1" source="3KESqyqhZTct8W2ELvNK-2" target="3KESqyqhZTct8W2ELvNK-4">
          <mxGeometry relative="1" as="geometry" />
        </mxCell>
        <mxCell id="3KESqyqhZTct8W2ELvNK-2" value="" style="sketch=0;outlineConnect=0;gradientColor=#ffa500;fillColor=#ffcd28;strokeColor=#d79b00;dashed=0;verticalLabelPosition=bottom;verticalAlign=top;align=center;html=1;fontSize=12;fontStyle=0;aspect=fixed;pointerEvents=1;shape=mxgraph.aws4.sagemaker_model;" vertex="1" parent="1">
          <mxGeometry x="190" y="161" width="78" height="78" as="geometry" />
        </mxCell>
        <mxCell id="3KESqyqhZTct8W2ELvNK-9" value="" style="edgeStyle=orthogonalEdgeStyle;rounded=0;orthogonalLoop=1;jettySize=auto;html=1;" edge="1" parent="1" source="3KESqyqhZTct8W2ELvNK-4" target="3KESqyqhZTct8W2ELvNK-8">
          <mxGeometry relative="1" as="geometry" />
        </mxCell>
        <mxCell id="3KESqyqhZTct8W2ELvNK-4" value="&lt;div&gt;&lt;b&gt;&lt;font face=&quot;Helvetica&quot; style=&quot;font-size: 16px;&quot;&gt;Disfluent&lt;/font&gt;&lt;/b&gt;&lt;/div&gt;&lt;div&gt;&lt;b&gt;&lt;font face=&quot;Helvetica&quot; style=&quot;font-size: 16px;&quot;&gt;Transcription&lt;/font&gt;&lt;/b&gt;&lt;/div&gt;" style="sketch=0;outlineConnect=0;fontColor=#232F3E;gradientColor=none;fillColor=#232F3D;strokeColor=none;dashed=0;verticalLabelPosition=bottom;verticalAlign=top;align=center;html=1;fontSize=12;fontStyle=0;aspect=fixed;pointerEvents=1;shape=mxgraph.aws4.document;" vertex="1" parent="1">
          <mxGeometry x="320" y="161" width="57" height="78" as="geometry" />
        </mxCell>
        <mxCell id="3KESqyqhZTct8W2ELvNK-6" value="&lt;div&gt;&lt;font style=&quot;font-size: 16px;&quot;&gt;&lt;b&gt;Speech&lt;/b&gt;&lt;/font&gt;&lt;/div&gt;" style="text;html=1;align=center;verticalAlign=middle;resizable=0;points=[];autosize=1;strokeColor=none;fillColor=none;" vertex="1" parent="1">
          <mxGeometry x="55.129999999999995" y="240" width="80" height="30" as="geometry" />
        </mxCell>
        <mxCell id="3KESqyqhZTct8W2ELvNK-7" value="&lt;font style=&quot;font-size: 16px;&quot;&gt;&lt;b&gt;ASR&lt;/b&gt;&lt;/font&gt;" style="text;html=1;align=center;verticalAlign=middle;resizable=0;points=[];autosize=1;strokeColor=none;fillColor=none;" vertex="1" parent="1">
          <mxGeometry x="191" y="243" width="60" height="30" as="geometry" />
        </mxCell>
        <mxCell id="3KESqyqhZTct8W2ELvNK-12" value="" style="edgeStyle=orthogonalEdgeStyle;rounded=0;orthogonalLoop=1;jettySize=auto;html=1;" edge="1" parent="1" source="3KESqyqhZTct8W2ELvNK-8">
          <mxGeometry relative="1" as="geometry">
            <mxPoint x="590.0636363636363" y="200" as="targetPoint" />
          </mxGeometry>
        </mxCell>
        <mxCell id="3KESqyqhZTct8W2ELvNK-8" value="" style="sketch=0;outlineConnect=0;gradientColor=#d5739d;fillColor=#e6d0de;strokeColor=default;dashed=0;verticalLabelPosition=bottom;verticalAlign=top;align=center;html=1;fontSize=12;fontStyle=0;aspect=fixed;pointerEvents=1;shape=mxgraph.aws4.sagemaker_model;gradientDirection=radial;" vertex="1" parent="1">
          <mxGeometry x="440" y="161" width="78" height="78" as="geometry" />
        </mxCell>
        <mxCell id="3KESqyqhZTct8W2ELvNK-10" value="&lt;b&gt;&lt;font style=&quot;font-size: 16px;&quot;&gt;LLM&lt;/font&gt;&lt;/b&gt;" style="text;html=1;align=center;verticalAlign=middle;resizable=0;points=[];autosize=1;strokeColor=none;fillColor=none;" vertex="1" parent="1">
          <mxGeometry x="448" y="240" width="60" height="30" as="geometry" />
        </mxCell>
        <mxCell id="3KESqyqhZTct8W2ELvNK-18" value="" style="shape=image;verticalLabelPosition=bottom;labelBackgroundColor=default;verticalAlign=top;aspect=fixed;imageAspect=0;image=data:image/webp,UklGRtwGAABXRUJQVlA4TM8GAAAv/8F/EIfANgDAMuH/x2U3R7t4Q00AoAlShP4RiMK+JXA3xW3bOErbf7sMkCvv9j0czLRtY/5IyqKjtGvnAgD6b7/2te6SZonuOSVQSUzBbTB+yuEAwACk6JLLej/+NY6Ctm2YhD/s/SGIiAlg0f7smPLf3KAOKOzO1gFk2pDcRpIkSSlBhf7ydvf+tjP3TGNE/ydAgmy7betYkikDbOH+t5sfSE4BXjpeRP8nYF3/X/9f/1//X/9f//8uO3N0dFaSM4My2YA6wrFmb2gdjMVsiB2RYMNsjwMbbGcQRgPuDMFoyO0RGA27w3+zoXe4j/DhdN5odi25wfFKFZJ6oTuv2WUDJG0qrw/Txum6YZMNkc1cX1+WNHXXNbNsiKRJX1YxcTpumGSDZDOLiTT1IGyQFJO+LlYLp99oFXy8rkoIhmnDJK16iWnpbmtWwQRNrxstnAHY4KF3VP9Ni4BCLXKHWLrTBj6a9RWdDZPForcwDXQa4SEWuadapvcUNBIIwcfr4+fHdwyXTXzopac5AstSDTsWrzyvBiAtLB/sBxovPG8kLd1ja1w68Gipr+e76LGcF/YDGnlPpqV6bF3YD2zwGZE0yX5Apli6x5alygGf6rFMAxUUYin3iKX/mkUDQVEsco9GosBD76H7JjxoYUiWSUGRlnKHuC/TwoIJsegdGgBaBBPFwjsYgGkhJmiSawzAsgkm1MJyRVoAMmlhgUSaNCJrmhQSTAuLTVoIMmmhQEJMLBZpQVjTREEE1cTypcIoZNJEQUSxUT5ii8OaNlJY4Kg2UlioLRCZvIBbzyV/+s2ffSvHT77MHD/9cvz0ywEaCcSakJEjEJk54CIHg5E5CBQtx+fR+HyOj6shBY1KHl+OyMqPu0EPOO5HaL4MDfN///333/XfPu3I3KQNmZcgT6lO5QGys/m1FogVerbuCBPXUBBWfaMIo28rwqpvFGHimxNhe/WMbgjLUv2iB8YyT/WpnNsP8BRE/vrv+u/67xzsp4ZSdriUymDmCZajtngWrEgLqGKlRoRYYUgPqNSQ7FCRiOiGlP2ISIFK5hmPM8GSh2iNJJ8bXEJ//Xf9d/3396BDaihZ4HK2cJ5geTKgBSsSEcVKjQh3qDCkB1RqSDaoSEQUK0cNyBMrWWo08tzAkvupoZR9g0vor/+u/67/rv+u/67/rv/+ONhdCrSi9GnVJ8jO5tgTYoWuPRCmvhGEVd8owujbirDqG0WY+OZEWFbP6AaxQ/2SO8YyT3Fq2X6Ap+DzPZOZSimllFJKKaWUUkoppZRSSimllFJKKaWUUkopmclM5g/zJET9+u/67/rvT4JykkkmRUREREREREREREREREREREREREREREREREREkjzwJM3bWsAkzeEnlM7m8bojSV3GE0n0ufxOoj47kXT6bEdSqsfODUop7qrnBqbcT1+X7Xt6CiJ//Xf9d/13/fcfFnP0r7kZqwZcSkhGg6oEZDSwSjwaWCvLTz6GY024VAlG4oXRWD/98qffwkuNRpoUmgZGY5nKAcyMS/70W3ip0UiU0MBoLFDtjkqTgES/isMyvLNAVRyViRL9xeJ0moKEX9v0FH/SdZCIpXwNYvnkn2EpyEiLfA1qWf6ZFgGJfg3VkA/3LpMig1/X3ozdP5kWQkMNLO8rluGhbikgyfedflNkFAvfp5bpoDUtRAZN5W3VshyU2S2CDLXku85m7A8Pr2lhAUZamG9Sb6VNgcG05HuOZh0uWtktLBihvIWm6aLMaWLBRZoobzjU0h8+XtlNLLCgmljuU1qnkzKnTXFBG8td0qz9sZzE7CZSYCE2yj1nM4+Hn+cFCiqoNma5VqTZP/lp5bhACjFRLpAqtlPbxfFwdb9CUsiCR71CUsiThaJZ29X+cDav4Xd6KzuaRnp7TTD1h8Mnlh4OX5wdR/3h85UDRSPdvmZHUM+H6wd86lgP78+BnD4eAVyZgx0xnWNlKGdmh+nIXI94kkycMv/7/7////v/+v9PVJ8H/eD86uczIe9/Nfg8r89PdCqfT5u3Uz3f5eT9mfI61fMtT17PD0w9X/3k9bTA9GzmBMcDpmdvB0cC07PRg3PA9Gz6YPOYnu0fNo3pOYfsluk5j2yTeY7l2CDzHE72xjwHlH0xzyFlUzwH1ZZ4jqodeQ7rhjgt9qPTsjbUWbEjOSnWnjomY22rM2JtrTkdY20vJ2OsPWZOxGRtNUdhYu04cwIm1s5j9m1iHUJmsyas4wizPxPW2YTZkCmsowrT9zfBOrtep69qKq/rNHs/9Y1M5e065j5O9TOayuf1q9DHQe+/ufmMfFy/bPn1dv3/V10A;" vertex="1" parent="1">
          <mxGeometry x="570" y="154" width="110" height="110" as="geometry" />
        </mxCell>
        <mxCell id="3KESqyqhZTct8W2ELvNK-19" value="&lt;div&gt;&lt;b&gt;&lt;font style=&quot;font-size: 16px;&quot;&gt;Fluent&lt;/font&gt;&lt;/b&gt;&lt;/div&gt;&lt;div&gt;&lt;b&gt;&lt;font style=&quot;font-size: 16px;&quot;&gt;Transcription&lt;/font&gt;&lt;/b&gt;&lt;/div&gt;" style="text;html=1;align=center;verticalAlign=middle;resizable=0;points=[];autosize=1;strokeColor=none;fillColor=none;" vertex="1" parent="1">
          <mxGeometry x="560" y="243" width="130" height="50" as="geometry" />
        </mxCell>
      </root>
    </mxGraphModel>
  </diagram>
</mxfile>
